<?xml version="1.0" encoding="utf-8"?>
<!-- Generator: Adobe Illustrator 16.0.0, SVG Export Plug-In . SVG Version: 6.00 Build 0)  -->
<!DOCTYPE svg PUBLIC "-//W3C//DTD SVG 1.1//EN" "http://www.w3.org/Graphics/SVG/1.1/DTD/svg11.dtd">
<svg version="1.1" id="图形" xmlns="http://www.w3.org/2000/svg" xmlns:xlink="http://www.w3.org/1999/xlink" x="0px" y="0px"
	 width="1024px" height="1024px" viewBox="0 0 1024 1024" enable-background="new 0 0 1024 1024" xml:space="preserve">
<g>
	<g>
		<g>
			<g transform="matrix(1 0 0 1 -3.051758e-005 1.826510e-005)">
			</g>
		</g>
	</g>
</g>
<path fill="#179EFF" d="M604.334,487.667L604.334,487.667z"/>
<line fill="none" x1="603.969" y1="488.5" x2="601.656" y2="582.594"/>
<path class="c1-fill" fill="#179EFF" d="M835.877,407.054c0,67.852-20.385,131.176-55.747,183.681l-31.036,39.873L508.952,937.869l-239.78-299.686
	c-20.923-21.107-39.149-44.929-53.58-70.724c-26.341-47.449-41.317-102.122-41.317-160.406
	c0-182.571,148.125-330.695,330.712-330.695C687.752,76.359,835.877,224.483,835.877,407.054z"/>
<path fill="#179EFF" d="M344.08,573.24c-0.51,0.779-1.09,1.52-1.72,2.21L344.08,573.24z"/>
</svg>
