<?xml version="1.0" encoding="utf-8"?>
<!-- Generator: Adobe Illustrator 16.0.0, SVG Export Plug-In . SVG Version: 6.00 Build 0)  -->
<!DOCTYPE svg PUBLIC "-//W3C//DTD SVG 1.1//EN" "http://www.w3.org/Graphics/SVG/1.1/DTD/svg11.dtd">
<svg version="1.1" id="图形" xmlns="http://www.w3.org/2000/svg" xmlns:xlink="http://www.w3.org/1999/xlink" x="0px" y="0px"
	 width="1024px" height="1024px" viewBox="0 0 1024 1024" enable-background="new 0 0 1024 1024" xml:space="preserve">
<g>
	<g>
		<g>
			<g transform="matrix(1 0 0 1 -3.051758e-005 1.826510e-005)">
			</g>
		</g>
	</g>
</g>
<path class="c1-fill" fill="#179EFF" d="M604.334,487.667L604.334,487.667z"/>
<line fill="none" x1="603.969" y1="488.5" x2="601.656" y2="582.594"/>
<path class="c1-fill" fill="#179EFF" d="M344.08,573.24c-0.51,0.779-1.09,1.52-1.72,2.21L344.08,573.24z"/>
<path class="c1-fill" fill="#179EFF" d="M663.833,386.5"/>
<path class="c1-fill" fill="#179EFF" d="M954.874,149.67v714.66h-0.349c-0.367-22.149-18.408-39.842-40.392-39.842
	c-20.536,0-37.513,15.362-40.008,35.376c-2.513-20.014-19.489-35.376-40.024-35.376c-20.555,0-37.53,15.362-40.025,35.376
	c-2.495-20.014-19.473-35.376-40.025-35.376c-20.537,0-37.513,15.362-40.024,35.376c-2.495-20.014-19.473-35.376-40.009-35.376
	c-20.554,0-37.53,15.362-40.025,35.376c-2.495-20.014-19.471-35.376-40.024-35.376c-20.536,0-37.514,15.362-40.025,35.376
	c-2.495-20.014-19.473-35.376-40.008-35.376c-20.553,0-37.53,15.362-40.025,35.376c-2.495-20.014-19.472-35.376-40.025-35.376
	c-20.536,0-37.513,15.362-40.025,35.376c-2.495-20.014-19.472-35.376-40.008-35.376c-20.378,0-37.53,15.362-40.025,35.376
	c-2.495-20.014-19.472-35.376-40.025-35.376c-20.187,0-37.164,15.188-39.833,34.844c-2.861-19.655-19.838-34.844-40.025-34.844
	c-20.554,0-37.53,15.362-40.025,35.376c-2.495-20.014-19.646-35.376-40.026-35.376c-22.141,0-40.008,17.692-40.374,39.842V149.67
	H954.874z"/>
</svg>
