<?xml version="1.0" encoding="utf-8"?>
<!-- Generator: Adobe Illustrator 16.0.0, SVG Export Plug-In . SVG Version: 6.00 Build 0)  -->
<!DOCTYPE svg PUBLIC "-//W3C//DTD SVG 1.1//EN" "http://www.w3.org/Graphics/SVG/1.1/DTD/svg11.dtd">
<svg version="1.1" id="图形" xmlns="http://www.w3.org/2000/svg" xmlns:xlink="http://www.w3.org/1999/xlink" x="0px" y="0px"
	 width="1024px" height="1024px" viewBox="0 0 1024 1024" enable-background="new 0 0 1024 1024" xml:space="preserve">
<path class="c1-fill" fill="#179EFF" d="M953.441,469.258C953.441,254.623,753.15,80,506.999,80C260.823,80,60.557,254.623,60.557,469.258
	c0,128.664,72.068,247.678,193.45,320.572v125.426c0,7.633,4.195,14.63,10.899,18.254c3.063,1.688,6.425,2.49,9.793,2.49
	c4,0,7.974-1.167,11.426-3.434l56.974-37.716c0.937-0.605,1.821-1.323,2.647-2.072l65.454-43.691
	c32.393,6.224,64.59,9.378,95.851,9.378C753.151,858.433,953.441,683.84,953.441,469.258"/>
</svg>
