<?xml version="1.0" encoding="utf-8"?>
<!-- Generator: Adobe Illustrator 16.0.0, SVG Export Plug-In . SVG Version: 6.00 Build 0)  -->
<!DOCTYPE svg PUBLIC "-//W3C//DTD SVG 1.1//EN" "http://www.w3.org/Graphics/SVG/1.1/DTD/svg11.dtd">
<svg version="1.1" id="图形" xmlns="http://www.w3.org/2000/svg" xmlns:xlink="http://www.w3.org/1999/xlink" x="0px" y="0px"
	 width="1024px" height="1024px" viewBox="0 0 1024 1024" enable-background="new 0 0 1024 1024" xml:space="preserve">
<g>
	<path class="c1-fill" fill="#E77528" d="M745.297,139.176l-53.636,66.497c-17.633-11.193-41.509-7.158-54.37,9.919L573,299.362
		c-5.703,7.517-8.447,16.342-8.447,25.149c0,9.561,3.12,18.925,9.543,26.458l-56.38,69.797
		C411.164,337.75,322.639,248.293,284.054,207.322C507.599-40.833,730.964,127.982,745.297,139.176z"/>
	<path class="c2-fill" fill="#294E58" d="M516.442,430.167C627.586,513.185,736.775,570.39,801.98,598.317
		c-14.889,22.047-32.701,44.812-53.455,68.328c-290.598,328.248-521.12,298.489-606.164,229.605
		C57.317,827.37,13.782,556.433,254.959,244.167c8.628-11.211,17.274-21.49,25.902-31.41
		C324.397,260.885,420.204,357.966,516.442,430.167z"/>
	<path class="c3-fill" fill="#0DB89A" d="M805.173,591.233c-58.226-24.791-166.411-77.511-281.035-165.694l55.661-68.882
		c0.181,0.197,0.539,0.556,0.915,0.735c18.19,13.777,44.093,10.296,57.869-7.713l64.289-83.932
		c5.687-7.534,8.628-16.162,8.628-24.988c0-11.211-4.771-22.405-13.596-30.315l53.813-66.479
		C787.541,171.698,974.545,334.809,805.173,591.233z"/>
	<path fill="none" d="M745.35,139.104c0.557,0.376,0.736,0.556,0.736,0.556s2.026,1.471,5.686,4.233"/>
	<path fill="none" d="M284.054,207.322c-1.83,2.206-3.857,4.413-5.687,6.619"/>
	<path fill="none" d="M805.173,591.233c-1.829,2.762-3.677,5.506-5.687,8.269"/>
	<path class="c3-fill" fill="#0DB89A" d="M754.409,146.082c0,0,57.76-31.732,109.708-22.835c53.115,9.095,69.744,26.406,75.197,30.137
		c0,0,9.472,3.157,9.759-2.583c0.053-0.987,0.018-3.265-3.444-6.835c-10.045-10.35-45.581-26.1-79.215-32.486
		c-39.32-7.462-68.595,2.87-102.749,16.072c0,0-11.947,5.167-18.315,10.046L754.409,146.082z"/>
</g>
</svg>
