<?xml version="1.0" encoding="utf-8"?>
<!-- Generator: Adobe Illustrator 16.0.0, SVG Export Plug-In . SVG Version: 6.00 Build 0)  -->
<!DOCTYPE svg PUBLIC "-//W3C//DTD SVG 1.1//EN" "http://www.w3.org/Graphics/SVG/1.1/DTD/svg11.dtd">
<svg version="1.1" id="图形" xmlns="http://www.w3.org/2000/svg" xmlns:xlink="http://www.w3.org/1999/xlink" x="0px" y="0px"
	 width="1024px" height="1024px" viewBox="0 0 1024 1024" enable-background="new 0 0 1024 1024" xml:space="preserve">
<g>
	<path class="c1-fill" fill="#F04B36" d="M793.678,440.858v70.143H237.087v-70.143c0,0,2.106-68.037-57.163-72.249c0,0,24.198-85.573,112.921-87.679
		c88.74-2.278,222.536,0,222.536,0s133.625-2.278,222.537,0c88.724,2.106,112.749,87.679,112.749,87.679
		C791.571,372.821,793.678,440.858,793.678,440.858z"/>
	<path class="c2-fill" fill="#F7A93B" d="M960.267,456.288v162.035c0,0,0,54.885-96.447,54.885v70.144h-0.701c0.531,1.746,0.701,3.51,0.701,5.428
		c0,14.043-11.216,25.26-25.069,25.26c-14.043,0-25.26-11.217-25.26-25.26c0-1.918,0.172-3.682,0.703-5.428h-0.703v-70.144H217.274
		v70.144h-0.702c0.531,1.746,0.702,3.51,0.702,5.428c0,14.043-11.217,25.26-25.259,25.26c-13.854,0-25.071-11.217-25.071-25.26
		c0-1.918,0.171-3.682,0.702-5.428h-0.702v-70.144c-96.447,0-96.447-54.885-96.447-54.885V456.288
		c0-36.476,29.283-65.931,65.588-65.931c36.476,0,65.931,29.455,65.931,65.931l-2.278,91.892h631.289l-2.277-91.892
		c0-36.476,29.454-65.931,65.93-65.931C930.983,390.357,960.267,419.812,960.267,456.288z"/>
</g>
</svg>
