<?xml version="1.0" encoding="utf-8"?>
<!-- Generator: Adobe Illustrator 16.0.0, SVG Export Plug-In . SVG Version: 6.00 Build 0)  -->
<!DOCTYPE svg PUBLIC "-//W3C//DTD SVG 1.1//EN" "http://www.w3.org/Graphics/SVG/1.1/DTD/svg11.dtd">
<svg version="1.1" xmlns="http://www.w3.org/2000/svg" xmlns:xlink="http://www.w3.org/1999/xlink" x="0px" y="0px" width="1024px"
	 height="1024px" viewBox="0 0 1024 1024" enable-background="new 0 0 1024 1024" xml:space="preserve">
<g id="图形">
</g>
<g id="图层_2">
	<path class="c1-fill" fill="#0DB89A" d="M505.98,532.03c-6.67-22.7-12.07-45.56-16.08-68.55c26.59-29.17,50.15-54.7,61.9-72.7
		c32.65-49.98,85.04-140.87,90.53-201.54c6.25-69.22-87.17-151.54-147.23-95.85c-45.23,41.94-57.78,162-48.74,216.77
		c5.73,34.7,10.75,69,15.65,103.03C378.27,495.84,232.85,622.63,339.8,715.73c51.56,44.88,117.86,46.609,181.66,32.529
		c7.07-1.56,14.86-3.229,23.11-5.08c1.149,5.471,2.17,10.96,3.02,16.45c10.62,68.16-26.01,193.54-113.92,138.59
		c-6.17,17.19,3.22,30.13,14.93,33.351C517.63,963.8,591.75,908.7,609.88,830.18c8.11-35.12-0.36-68.149-14.59-100.05
		c41.21-12.58,81.96-31.439,98.71-62.79C765.87,532.86,592.19,494.9,505.98,532.03z M509.02,204.37
		c10.58-30.72,22.58-78.16,64.16-79.63c44.65-1.55,51.811,41.91,44.851,79.48c-12.08,65.27-81.021,125.24-123.05,174.42
		c-3.84,4.49-8.17,9.24-12.9,14.21C479.24,330.24,487.44,267.11,509.02,204.37z M407.33,720.21
		c-98.68-43.49-12.49-151.29,64.77-237.12c2.26,15.36,4.58,30.69,7.01,45.99c0.89,5.66,1.96,11.31,3.18,16.96
		c-12.97,10.58-20.99,24.1-21.34,40.41c9.74,11.28,23.65,18.45,38.79,19.78c13.29,38.439,29.22,76.84,39.68,115.63
		C497.72,738.52,449,738.57,407.33,720.21z M600.37,678.6c-6.29,7.41-13.25,14.11-20.76,20.091
		c-12.83-23.78-26.92-47.08-37.49-70.33c-6.39-14.051-12.34-28.19-17.82-42.41C579.2,555.63,654.91,614.26,600.37,678.6z"/>
</g>
</svg>
