<?xml version="1.0" encoding="utf-8"?>
<!-- Generator: Adobe Illustrator 16.0.0, SVG Export Plug-In . SVG Version: 6.00 Build 0)  -->
<!DOCTYPE svg PUBLIC "-//W3C//DTD SVG 1.1//EN" "http://www.w3.org/Graphics/SVG/1.1/DTD/svg11.dtd">
<svg version="1.1" xmlns="http://www.w3.org/2000/svg" xmlns:xlink="http://www.w3.org/1999/xlink" x="0px" y="0px" width="1024px"
	 height="1024px" viewBox="0 0 1024 1024" enable-background="new 0 0 1024 1024" xml:space="preserve">
<g id="图形">
	<path class="c1-fill" fill="#0DB89A" d="M843,418.01v0.24h-0.12C842.93,418.17,842.97,418.09,843,418.01z"/>
	<path class="c2-fill" fill="#CFD0D1" d="M910.769,581.3c28.61-20.459,46.892-52.868,46.892-89.266c0-55.219-42.01-100.846-97.602-110.986
		c6.524-12.855,10.148-27.521,10.148-42.913c0-54.317-43.989-98.132-98.131-98.132h-0.901c1.626-6.338,2.352-12.854,2.352-19.556
		c0-49.243-41.835-89.079-93.43-89.079c-11.227,0-22.083,1.812-32.055,5.437c-6.507-30.607-35.666-53.778-70.778-53.778
		c-29.706,0-55.044,16.293-66.095,39.651c-11.227-23.358-36.565-39.651-66.271-39.651c-35.113,0-64.271,23.171-70.795,53.778
		c-9.956-3.625-20.811-5.437-32.038-5.437c-51.612,0-93.429,39.836-93.429,89.079c0,6.701,0.725,13.218,2.352,19.556h-0.903
		c-54.14,0-98.131,43.815-98.131,98.132c0,15.392,3.625,30.058,10.131,42.913c-55.573,10.14-97.583,55.768-97.583,110.986
		c0,36.397,18.282,68.807,46.891,89.266c-28.608,23.171-46.891,59.02-46.891,99.219c0,70.071,55.396,126.741,123.664,126.741
		c12.677,0,24.807-1.99,36.388-5.429c2.529,63.37,72.424,114.063,158.25,114.063c52.868,0,99.758-19.193,128.366-48.527
		c28.786,29.334,75.321,48.527,128.19,48.527c85.825,0,155.702-50.692,158.249-114.063c11.58,3.438,23.71,5.429,36.389,5.429
		c68.25,0,123.663-56.67,123.663-126.741C957.66,640.319,939.379,604.471,910.769,581.3z M794.886,469.225
		c1.449,36.212-24.259,55.944-40.738,42.365c-16.656-13.579,2.899-27.159,2.899-27.159c21.184-25.708-27.158-57.394-27.158-57.394
		c-31.686-10.502-46.714-3.077-63.37,0c-16.479,3.076-30.06,9.053-30.06-9.053c0-22.81,28.608-28.609,79.85-30.236
		C767.726,386.299,793.259,433.014,794.886,469.225z M665.067,255.032c0,0-4.525-34.762,13.58-39.288
		c18.107-4.527,19.556,12.129,19.556,12.129s27.16,108.634-61.744,134.344c0,0-33.311-1.627-16.655-31.686
		C619.804,330.532,672.317,327.455,665.067,255.032z M319.608,227.874c0,0,1.451-16.656,19.555-12.129
		c18.106,4.526,13.58,39.288,13.58,39.288c-7.249,72.423,45.265,75.5,45.265,75.5c16.657,30.059-16.656,31.686-16.656,31.686
		C292.451,336.508,319.608,227.874,319.608,227.874z M301.502,387.749c51.24,1.627,79.85,7.426,79.85,30.236
		c0,18.106-13.58,12.129-30.06,9.053c-16.655-3.077-31.684-10.502-63.37,0c0,0-48.341,31.686-27.158,57.394
		c0,0,19.557,13.581,2.899,27.159c-16.479,13.579-42.187-6.153-40.737-42.365C224.553,433.014,250.084,386.299,301.502,387.749z
		 M192.868,589.989c24.082-34.763,63.37-39.288,109.36-37.661c45.989,1.449,73.147-36.389,73.147-36.389s25.71-25.532,27.337,9.229
		c1.625,34.585-21.36,55.768-72.601,66.271c-32.409,6.701-91.979,1.627-107.184,21.183
		C207.721,632.178,168.609,624.751,192.868,589.989z M440.196,632.178c-9.054,43.814-81.122,93.604-81.122,93.604
		c13.949,27.159,8.698,86.003-9.408,82.927c-18.104-2.901-19.555-27.159-19.555-27.159c-1.45-78.398-73.873-64.82-98.131-57.218
		c-24.083,7.426-45.265-13.578-9.053-37.838c36.21-24.082,108.635,0,108.635,0c40.738,0,81.476-78.399,81.476-78.399
		C421.189,594.153,449.248,588.539,440.196,632.178z M402.712,295.77c-30.06-14.667,0-36.211,0-36.211
		c57.393-12.129,52.689-96.505,52.689-96.505s-16.656-39.289,16.48-28.786c33.313,10.68,15.206,87.629,6.154,108.634
		C468.98,264.085,432.769,310.437,402.712,295.77z M524.748,749.68c0,9.238-7.602,16.841-16.832,16.841
		c-9.248,0-16.851-7.603-16.851-16.841V638.516c0-9.239,7.603-16.841,16.851-16.841c9.23,0,16.832,7.602,16.832,16.841V749.68z
		 M524.748,499.098c0,9.239-7.602,16.842-16.832,16.842c-9.248,0-16.851-7.603-16.851-16.842V354.791
		c0-9.229,7.603-16.833,16.851-16.833c9.23,0,16.832,7.603,16.832,16.833V499.098z M539.777,242.902
		c-9.053-21.005-27.159-97.955,6.153-108.634c33.136-10.503,16.479,28.786,16.479,28.786s-4.704,84.375,52.69,96.505
		c0,0,30.059,21.545,0,36.211C585.042,310.437,548.83,264.085,539.777,242.902z M785.832,724.332
		c-24.259-7.603-96.682-21.181-98.132,57.218c0,0-1.448,24.258-19.555,27.159c-18.106,3.076-23.358-55.768-9.408-82.927
		c0,0-72.068-49.79-81.122-93.604c-9.052-43.639,19.008-38.024,27.159-24.083c0,0,40.738,78.399,81.478,78.399
		c0,0,72.421-24.082,108.634,0C831.098,710.754,809.914,731.758,785.832,724.332z M794.886,612.622
		c-15.207-19.556-74.776-14.481-107.186-21.183c-51.241-10.503-74.227-31.686-72.6-66.271c1.626-34.761,27.336-9.229,27.336-9.229
		s27.158,37.838,73.146,36.389c45.99-1.627,85.28,2.898,109.36,37.661C849.201,624.751,810.09,632.178,794.886,612.622z"/>
	<g>
		<path fill="none" d="M831.667,423"/>
		<path class="c3-fill" fill="#E7E7E8" d="M838.583,433L838.583,433z"/>
	</g>
	<path fill="none" d="M856.083,423"/>
	<path class="c3-fill" fill="#E7E7E8" d="M849.167,433L849.167,433z"/>
</g>
<g id="图层_2">
</g>
</svg>
