<?xml version="1.0" encoding="utf-8"?>
<!-- Generator: Adobe Illustrator 16.0.0, SVG Export Plug-In . SVG Version: 6.00 Build 0)  -->
<!DOCTYPE svg PUBLIC "-//W3C//DTD SVG 1.1//EN" "http://www.w3.org/Graphics/SVG/1.1/DTD/svg11.dtd">
<svg version="1.1" xmlns="http://www.w3.org/2000/svg" xmlns:xlink="http://www.w3.org/1999/xlink" x="0px" y="0px" width="1024px"
	 height="1024px" viewBox="0 0 1024 1024" enable-background="new 0 0 1024 1024" xml:space="preserve">
<g id="图形">
	<path class="c1-fill" fill="#0DB89A" d="M843,418.01v0.24h-0.12C842.93,418.17,842.97,418.09,843,418.01z"/>
	<g>
		<path fill="none" d="M831.667,423"/>
		<path class="c2-fill" fill="#E7E7E8" d="M838.583,433L838.583,433z"/>
	</g>
	<path fill="none" d="M856.083,423"/>
	<path class="c2-fill" fill="#E7E7E8" d="M849.167,433L849.167,433z"/>
</g>
<g id="图层_2">
	<path class="c3-fill" fill="#4DA0D8" d="M641.768,407.31l145.901-184.678l20.613,176.919c2.567,21.799,22.421,37.492,44.22,34.945
		c10.909-1.303,20.186-6.904,26.467-14.876c6.437-8.128,9.742-18.454,8.479-29.344l-31.173-266.992
		c-1.438-12.31-8.303-22.558-17.967-28.663c-8.148-7.973-19.738-12.291-32.028-10.852L539.17,115.115
		c-10.908,1.264-20.341,6.767-26.758,14.896c-6.3,7.953-9.451,18.396-8.187,29.325c2.566,21.799,22.421,37.472,44.22,34.925
		l176.492-20.709L580.513,356.362c-133.906-85.232-313.449-56.821-414.063,70.53c-107.4,135.947-84.279,333.109,51.512,440.393
		c135.927,107.399,333.265,84.396,440.665-51.532C756.012,692.484,745.978,518.58,641.768,407.31z M261.152,812.602
		c-105.611-83.441-123.579-236.734-40.02-342.5c83.559-105.767,236.852-123.754,342.463-40.292
		c105.785,83.56,123.909,236.969,40.33,342.734C520.366,878.31,366.937,896.161,261.152,812.602z"/>
</g>
</svg>
