<?xml version="1.0" encoding="utf-8"?>
<!-- Generator: Adobe Illustrator 16.0.0, SVG Export Plug-In . SVG Version: 6.00 Build 0)  -->
<!DOCTYPE svg PUBLIC "-//W3C//DTD SVG 1.1//EN" "http://www.w3.org/Graphics/SVG/1.1/DTD/svg11.dtd">
<svg version="1.1" xmlns="http://www.w3.org/2000/svg" xmlns:xlink="http://www.w3.org/1999/xlink" x="0px" y="0px" width="1024px"
	 height="1024px" viewBox="0 0 1024 1024" enable-background="new 0 0 1024 1024" xml:space="preserve">
<g id="图形">
	<path fill="#0DB89A" d="M843,418.01v0.24h-0.12C842.93,418.17,842.97,418.09,843,418.01z"/>
	<g>
		<path fill="none" d="M831.667,423"/>
		<path fill="#E7E7E8" d="M838.583,433L838.583,433z"/>
	</g>
	<path fill="none" d="M856.083,423"/>
	<path fill="#E7E7E8" d="M849.167,433L849.167,433z"/>
</g>
<g id="图层_2">
	<path class="c3-fill" fill="#4DA0D8" d="M684.128,402.113l19.937-19.937c-0.145-0.147-0.145-0.147-0.292-0.292l106.422-106.421l59.197,59.197
		c17.098,17.098,44.822,17.244,61.906,0.161c17.098-17.098,16.952-44.823-0.146-61.921l-59.197-59.198l40.314-40.314
		c8.401-8.403,12.587-19.5,12.441-30.448c0.162-10.935-4.201-22.178-12.589-30.565c-16.938-16.937-44.223-16.937-61.012-0.146
		l-40.315,40.314l-57.559-57.559c-8.548-8.549-19.645-12.734-30.886-12.881c-11.243,0.146-22.339,4.332-30.888,12.881
		c-17.083,17.083-17.083,44.662,0.015,61.76l57.558,57.558L624.022,339.316c-131.014-105.222-323.333-97.288-445.053,24.431
		C48.556,494.16,48.557,705.511,178.971,835.925c130.414,130.413,341.763,130.412,472.176-0.002
		C769.411,717.659,780.508,532.689,684.128,402.113z M231.436,783.459c-101.328-101.326-101.475-265.775,0-367.248
		c101.474-101.475,265.921-101.327,367.248,0c101.326,101.327,101.474,265.773,0,367.248
		C497.21,884.934,332.761,884.786,231.436,783.459z"/>
</g>
</svg>
