<?xml version="1.0" encoding="utf-8"?>
<!-- Generator: Adobe Illustrator 16.0.0, SVG Export Plug-In . SVG Version: 6.00 Build 0)  -->
<!DOCTYPE svg PUBLIC "-//W3C//DTD SVG 1.1//EN" "http://www.w3.org/Graphics/SVG/1.1/DTD/svg11.dtd">
<svg version="1.1" xmlns="http://www.w3.org/2000/svg" xmlns:xlink="http://www.w3.org/1999/xlink" x="0px" y="0px" width="1024px"
	 height="1024px" viewBox="0 0 1024 1024" enable-background="new 0 0 1024 1024" xml:space="preserve">
<g id="图形">
	<path fill="#0DB89A" d="M843,418.01v0.24h-0.12C842.93,418.17,842.97,418.09,843,418.01z"/>
	<g>
		<path fill="none" d="M831.667,423"/>
		<path fill="#E7E7E8" d="M838.583,433L838.583,433z"/>
	</g>
	<path fill="none" d="M856.083,423"/>
	<path fill="#E7E7E8" d="M849.167,433L849.167,433z"/>
</g>
<g id="图层_2">
	<g>
		<path class="c1-fill" fill="#FE3D37" d="M618.256,540.969c0.165-3.212,0.242-6.457,0.253-9.714c0.219-108.399-87.447-196.406-195.847-196.625
			c-108.399-0.219-196.417,87.447-196.636,195.847c-0.197,98.301,71.901,179.926,166.201,194.333l-0.033,16.566
			c0.121,0,0.121,0,0.242,0l-0.176,88.467l-49.206-0.099c-14.209-0.033-25.819,11.402-25.853,25.601
			c-0.022,14.22,11.534,25.699,25.754,25.731l49.205,0.099l-0.065,33.506c-0.022,6.984,2.839,13.343,7.444,17.838
			c4.462,4.627,10.942,7.499,17.915,7.511c14.078,0.032,25.448-11.293,25.469-25.239l0.066-33.516l47.846,0.099
			c7.104,0.011,13.464-2.852,18.211-7.444c4.616-4.727,7.499-11.074,7.51-18.179c0.033-14.198-11.403-25.688-25.623-25.71
			l-47.835-0.099l0.209-103.915c70.87-7.598,130.589-52.978,158.427-115.668c-14.682,2.171-36.258,5.119-53.285,6.402
			c-27.552,40.38-73.973,66.835-126.489,66.736c-84.224-0.175-152.496-68.589-152.32-152.933
			c0.165-84.346,68.71-152.496,152.934-152.332c84.224,0.175,152.496,68.59,152.321,152.934c-0.011,8.224-0.681,16.292-1.952,24.153
			C584.871,553.457,603.082,549.422,618.256,540.969z"/>
		<g id="图层_2_1_">
			<path class="c2-fill" fill="#F4A430" d="M849,267.279l-19.482-166.913c-0.899-7.697-5.197-14.1-11.237-17.915
				c-5.088-4.989-12.335-7.686-20.02-6.787L631.27,95.257c-6.818,0.8-12.706,4.232-16.72,9.319c-3.936,4.966-5.909,11.5-5.12,18.332
				c1.602,13.628,14.013,23.43,27.641,21.829l110.339-12.948l-90.286,114.287c-83.709-53.284-195.956-35.522-258.856,44.096
				c-9.89,12.51-18.002,25.842-24.373,39.711c13.178-2.763,39.185-7.466,52.67-4.725c1.864-2.697,3.827-5.362,5.888-7.971
				c52.243-66.123,148.066-77.371,214.09-25.194c66.134,52.242,77.46,148.143,25.217,214.266
				c-52.242,66.112-148.153,77.273-214.287,25.042c-44.623-35.249-64.215-90.452-56.091-142.936
				c-13.551,2.182-31.192,5.998-45.05,12.368c-3.42,61.528,22.158,123.671,74.138,164.753
				c84.981,67.143,208.344,52.758,275.487-32.224c60.883-77.053,54.61-185.77-10.536-255.335l91.208-115.449L799.51,273.08
				c1.601,13.628,14.022,23.44,27.64,21.84c6.83-0.811,12.619-4.309,16.555-9.297C847.729,280.546,849.79,274.088,849,267.279z"/>
		</g>
	</g>
</g>
</svg>
