<?xml version="1.0" encoding="utf-8"?>
<!-- Generator: Adobe Illustrator 16.0.0, SVG Export Plug-In . SVG Version: 6.00 Build 0)  -->
<!DOCTYPE svg PUBLIC "-//W3C//DTD SVG 1.1//EN" "http://www.w3.org/Graphics/SVG/1.1/DTD/svg11.dtd">
<svg version="1.1" xmlns="http://www.w3.org/2000/svg" xmlns:xlink="http://www.w3.org/1999/xlink" x="0px" y="0px" width="1024px"
	 height="1024px" viewBox="0 0 1024 1024" enable-background="new 0 0 1024 1024" xml:space="preserve">
<g id="图形">
	<path fill="#0DB89A" d="M843,418.01v0.24h-0.12C842.93,418.17,842.97,418.09,843,418.01z"/>
	<g>
		<path fill="none" d="M831.667,423"/>
		<path fill="#E7E7E8" d="M838.583,433L838.583,433z"/>
	</g>
	<path fill="none" d="M856.083,423"/>
	<path fill="#E7E7E8" d="M849.167,433L849.167,433z"/>
</g>
<g id="图层_2">
	<g>
		<path class="c1-fill" fill="#FFD699" d="M944.229,507.45c0,238.706-193.523,432.23-432.229,432.23c-238.707,0-432.231-193.524-432.231-432.23
			c0-238.706,193.524-432.23,432.231-432.23C750.706,75.22,944.229,268.744,944.229,507.45z"/>
		<path class="c2-fill" fill="#F7A93B" d="M894.523,507.45c0,211.269-171.252,382.524-382.522,382.524S129.477,718.719,129.477,507.45
			S300.73,124.926,512.001,124.926S894.523,296.181,894.523,507.45z"/>
		<path class="c1-fill" fill="#FFD699" d="M869.164,507.45c0,197.255-159.909,357.181-357.182,357.181c-197.254,0-357.163-159.926-357.163-357.181
			c0-197.256,159.908-357.181,357.163-357.181C709.255,150.269,869.164,310.194,869.164,507.45z"/>
		<path class="c2-fill" fill="#F7A93B" d="M477.742,793.194v-66.54c-43.323-2.11-85.314-15.415-109.881-30.121l19.383-81.938
			c27.149,16.107,65.29,30.813,107.297,30.813c37.483,0,62.692-16.092,62.692-43.41c0-26.643-20.684-43.424-69.158-60.934
			c-69.157-25.224-116.331-60.241-116.331-128.183c0-62.335,40.066-110.657,109.239-124.637v-66.557h63.314v61.644
			c42.699,1.384,71.758,11.903,94.381,23.098l-19.381,79.152c-16.158-8.409-46.55-24.5-93.065-24.5
			c-42.025,0-55.599,20.295-55.599,39.914c0,22.405,22.625,37.803,78.205,59.516c76.908,29.412,107.301,67.942,107.301,131.662
			c0,62.335-40.084,115.588-114.408,128.893v72.128H477.742z"/>
	</g>
</g>
</svg>
