<?xml version="1.0" encoding="utf-8"?>
<!-- Generator: Adobe Illustrator 16.0.0, SVG Export Plug-In . SVG Version: 6.00 Build 0)  -->
<!DOCTYPE svg PUBLIC "-//W3C//DTD SVG 1.1//EN" "http://www.w3.org/Graphics/SVG/1.1/DTD/svg11.dtd">
<svg version="1.1" id="图形" xmlns="http://www.w3.org/2000/svg" xmlns:xlink="http://www.w3.org/1999/xlink" x="0px" y="0px"
	 width="1024px" height="1024px" viewBox="0 0 1024 1024" enable-background="new 0 0 1024 1024" xml:space="preserve">
<g>
	<path class="c1-stroke" fill="none" stroke="#42C2B3" stroke-width="40" stroke-miterlimit="10" d="M922.5,507c0,229.479-186.021,415.5-415.5,415.5
		C277.521,922.5,91.5,736.479,91.5,507C91.5,277.521,277.521,91.5,507,91.5C736.479,91.5,922.5,277.521,922.5,507z"/>
	<path class="c2-fill" fill="#42C2B3" d="M830.412,506.433c0,178.518-144.716,323.227-323.218,323.227c-178.52,0-323.235-144.709-323.235-323.227
		c0-178.519,144.715-323.226,323.235-323.226C685.696,183.207,830.412,327.914,830.412,506.433z"/>
	<path class="c3-fill" fill="#E5EB97" d="M809.444,506.483c0,49.859-12.04,96.835-33.586,138.388H238.431
		c-21.547-41.553-33.586-88.529-33.586-138.388c0-167.042,135.34-302.384,302.383-302.384
		C674.103,204.099,809.444,339.441,809.444,506.483z"/>
</g>
</svg>
