<?xml version="1.0" encoding="utf-8"?>
<!-- Generator: Adobe Illustrator 16.0.0, SVG Export Plug-In . SVG Version: 6.00 Build 0)  -->
<!DOCTYPE svg PUBLIC "-//W3C//DTD SVG 1.1//EN" "http://www.w3.org/Graphics/SVG/1.1/DTD/svg11.dtd">
<svg version="1.1" id="图层_1" xmlns="http://www.w3.org/2000/svg" xmlns:xlink="http://www.w3.org/1999/xlink" x="0px" y="0px"
	 width="1024px" height="1024px" viewBox="0 0 1024 1024" enable-background="new 0 0 1024 1024" xml:space="preserve">
<g id="图形">
	<path fill="#0DB89A" d="M843,418.01v0.24h-0.12C842.93,418.17,842.97,418.09,843,418.01z"/>
	<g>
		<path fill="none" d="M831.667,423"/>
		<path fill="#E7E7E8" d="M838.583,433L838.583,433z"/>
	</g>
	<path fill="none" d="M856.083,423"/>
	<path fill="#E7E7E8" d="M849.167,433L849.167,433z"/>
</g>
<g id="图层_2">
	<g>
		<path class="c1-fill" fill="#E8B945" d="M882.449,202.668H126.425c-27.648,0-50.155,22.508-50.155,50.329v537.517
			c0,27.647,22.507,50.155,50.155,50.155h756.024c27.829,0,50.337-22.508,50.337-50.155V252.997
			C932.786,225.176,910.278,202.668,882.449,202.668z M702.043,368.546c-28.713,0-52.103,23.391-52.103,52.104v202.213
			c0,28.704,23.39,52.103,52.103,52.103h177.932v44.66c0,27.648-22.508,50.155-50.153,50.155h-644.38
			c-27.647,0-50.155-22.507-50.155-50.155V312.013c0-27.83,22.508-50.337,50.155-50.337h644.378
			c27.646,0,50.153,22.507,50.153,50.337v56.533H702.043z"/>
		<g>
			<path class="c1-fill" fill="#E8B945" d="M649.94,420.648v202.213c0,28.704,23.39,52.103,52.103,52.103h177.932v44.66
				c0,27.648-22.508,50.155-50.153,50.155h-644.38c-27.647,0-50.155-22.507-50.155-50.155V312.013
				c0-27.83,22.508-50.337,50.155-50.337h644.378c27.646,0,50.153,22.507,50.153,50.337v56.533h-177.93
				C673.33,368.546,649.94,391.937,649.94,420.648z"/>
			<g>
				<polygon class="c2-fill" fill="#DD712B" points="888.835,692.688 871.113,692.688 871.113,683.825 862.252,683.825 862.252,666.104
					888.835,666.104 				"/>
				<path class="c2-fill" fill="#DD712B" d="M829.914,778.641h-35.202v-17.722h35.107L829.914,778.641z M759.51,778.641h-35.202v-17.722h35.202
					V778.641z M689.097,778.641h-35.202v-17.722h35.202V778.641z M618.692,778.641H583.49v-17.722h35.202V778.641z M548.288,778.641
					h-35.202v-17.722h35.202V778.641z M477.875,778.641h-35.202v-17.722h35.202V778.641z M407.471,778.641h-35.202v-17.722h35.202
					V778.641z M337.067,778.641h-35.202v-17.722h35.202V778.641z M266.654,778.641h-35.202v-17.722h35.202V778.641z M196.25,778.641
					h-10.808c-9.605,0-19.15-2.371-27.596-6.86l8.325-15.646c5.893,3.133,12.556,4.786,19.271,4.786h10.808V778.641z
					 M867.998,764.597l-11.475-13.5c7.459-6.343,12.441-15.106,14.034-24.68l17.479,2.908
					C885.764,743.015,878.65,755.545,867.998,764.597z M130.691,741.665c-2.83-7.019-4.266-14.435-4.266-22.041v-16.009h17.722
					v16.009c0,5.322,1.004,10.506,2.985,15.412L130.691,741.665z M144.147,668.413h-17.722v-35.202h17.722V668.413z
					 M144.147,598.009h-17.722v-35.211h17.722V598.009z M144.147,527.596h-17.722v-35.202h17.722V527.596z M144.147,457.191h-17.722
					v-35.202h17.722V457.191z M144.147,386.779h-17.722v-35.203h17.722V386.779z M144.147,316.375h-17.722v-4.361
					c0-12.279,3.712-24.048,10.73-34.042l14.503,10.194c-4.916,6.992-7.511,15.239-7.511,23.849V316.375z M888.835,315.051h-17.722
					v-3.038c0-8.991-2.821-17.549-8.151-24.74l14.228-10.557c7.624,10.271,11.646,22.473,11.646,35.297V315.051z M174.936,271.887
					l-4.517-17.134c4.881-1.289,9.935-1.938,15.022-1.938h22.3v17.723h-22.3C181.876,270.538,178.346,270.996,174.936,271.887z
					 M839.286,271.628c-3.099-0.727-6.274-1.09-9.467-1.09h-23.615v-17.723h23.615c4.552,0,9.095,0.528,13.499,1.558
					L839.286,271.628z M771.002,270.538h-35.211v-17.723h35.211V270.538z M700.589,270.538h-35.202v-17.723h35.202V270.538z
					 M630.185,270.538h-35.2v-17.723h35.2V270.538z M559.78,270.538h-35.211v-17.723h35.211V270.538z M489.367,270.538h-35.202
					v-17.723h35.202V270.538z M418.963,270.538h-35.202v-17.723h35.202V270.538z M348.559,270.538h-35.211v-17.723h35.211V270.538z
					 M278.146,270.538h-35.202v-17.723h35.202V270.538z"/>
				<polygon class="c2-fill" fill="#DD712B" points="888.835,377.407 862.252,377.407 862.252,359.685 871.113,359.685 871.113,350.824
					888.835,350.824 				"/>
				<path class="c2-fill" fill="#DD712B" d="M825.839,683.825h-36.111v-17.725h36.111V683.825z M753.626,683.825h-36.111v-17.725h36.111V683.825z
					 M678.521,679.101c-13.051-5.484-23.875-15.43-30.479-27.977l15.681-8.256c4.698,8.931,12.394,15.992,21.668,19.895
					L678.521,679.101z M658.802,611.863h-17.723V575.76h17.723V611.863z M658.802,539.65h-17.723v-36.104h17.723V539.65z
					 M658.802,467.438h-17.723v-36.103h17.723V467.438z M663.854,400.399l-15.645-8.324c6.663-12.53,17.558-22.404,30.658-27.813
					l6.75,16.39C676.324,384.485,668.588,391.495,663.854,400.399z M826.15,377.407h-36.104v-17.722h36.104V377.407z
					 M753.938,377.407h-36.103v-17.722h36.103V377.407z"/>
			</g>
		</g>
		<g>
			<polygon class="c2-fill" fill="#DD712B" points="888.835,386.269 871.113,386.269 871.113,377.407 862.252,377.407 862.252,359.685
				888.835,359.685 			"/>
			<path class="c2-fill" fill="#DD712B" d="M888.835,618.526h-17.722v-38.707h17.722V618.526z M888.835,541.104h-17.722v-38.705h17.722V541.104z
				 M888.835,463.682h-17.722v-38.706h17.722V463.682z"/>
			<polygon class="c2-fill" fill="#DD712B" points="888.835,683.825 862.252,683.825 862.252,666.104 871.113,666.104 871.113,657.242
				888.835,657.242 			"/>
			<path class="c2-fill" fill="#DD712B" d="M826.15,683.825h-36.104v-17.725h36.104V683.825z M753.938,683.825h-36.103v-17.725h36.103V683.825z
				 M678.86,679.239c-13.104-5.409-23.979-15.282-30.65-27.806l15.646-8.323c4.732,8.896,12.471,15.903,21.771,19.756
				L678.86,679.239z M658.802,612.175h-17.723v-36.103h17.723V612.175z M658.802,539.962h-17.723v-36.103h17.723V539.962z
				 M658.802,467.749h-17.723v-36.103h17.723V467.749z M663.726,400.633l-15.681-8.238c6.604-12.564,17.428-22.507,30.486-27.985
				l6.854,16.337C676.117,384.642,668.424,391.703,663.726,400.633z M825.839,377.407h-36.111v-17.722h36.111V377.407z
				 M753.626,377.407h-36.111v-17.722h36.111V377.407z"/>
		</g>
		<g>
			<path class="c1-fill" fill="#E8B945" d="M947.67,368.546v306.418H702.043c-28.713,0-52.103-23.396-52.103-52.103V420.648
				c0-28.712,23.39-52.104,52.103-52.104L947.67,368.546L947.67,368.546z"/>
			<path class="c2-fill" fill="#E77428" d="M956.531,683.825H702.043c-33.619,0-60.964-27.345-60.964-60.964V420.648
				c0-33.62,27.345-60.963,60.964-60.963h254.488V683.825z M702.043,377.407c-23.841,0-43.241,19.399-43.241,43.241v202.213
				c0,23.841,19.4,43.239,43.241,43.239h236.766V377.407H702.043z"/>
		</g>
		<path class="c2-fill" fill="#E77428" d="M791,514.841c0,24.646-19.973,44.617-44.617,44.617c-24.646,0-44.617-19.972-44.617-44.617
			c0-24.645,19.974-44.617,44.617-44.617C771.027,470.224,791,490.196,791,514.841z"/>
	</g>
</g>
</svg>
