<?xml version="1.0" encoding="utf-8"?>
<!-- Generator: Adobe Illustrator 16.0.0, SVG Export Plug-In . SVG Version: 6.00 Build 0)  -->
<!DOCTYPE svg PUBLIC "-//W3C//DTD SVG 1.1//EN" "http://www.w3.org/Graphics/SVG/1.1/DTD/svg11.dtd">
<svg version="1.1" id="图层_1" xmlns="http://www.w3.org/2000/svg" xmlns:xlink="http://www.w3.org/1999/xlink" x="0px" y="0px"
	 width="1024px" height="1024px" viewBox="0 0 1024 1024" enable-background="new 0 0 1024 1024" xml:space="preserve">
<path class="c1-fill" fill="#06728D" d="M506.392,870.75H238.13c0,0,69.883-135.257-13.525-254.735c-83.408-119.478-63.12-112.714-65.375-139.766
	c-2.254-27.051,72.137,127.262,83.409,50.106C253.911,449.198,107.382,424.4,75.821,194.462c0,0,72.138,94.68,130.749,139.766
	c58.611,45.087,108.207,259.244,103.698,344.908c0,0,4.509,42.832,18.035-4.509c13.525-47.34,4.508-184.853-2.255-277.278
	c-6.763-92.426-20.289-202.886,9.017-252.481c0,0,103.698,178.089,85.663,329.127c-18.033,151.038-15.78,193.869-38.322,245.718
	c0,0,78.9-31.561,112.714-178.091c33.814-146.528,36.068-232.19,144.274-313.345c0,0,51.85,47.339-60.864,279.532
	c-112.716,232.192-153.294,304.33-151.04,333.637C429.746,870.75,613.611,564.166,651.3,539.37
	c37.689-24.798,73.759-58.613,60.232,27.052c0,0,180.344-135.259,245.718-148.785c0,0-279.531,200.633-344.906,281.787
	c-65.375,81.154-47.34,54.104-47.34,54.104s69.882-18.034,148.782-96.936c78.9-78.9,200.632-92.426,218.667-90.17
	c0,0-123.985,38.322-182.598,101.441c-58.611,63.121-105.952,83.409-130.75,94.682c0,0,76.646-20.289,114.969-13.525
	c0,0-189.359,33.813-234.446,101.443c0,0,227.684,6.762,297.568-87.918C797.196,762.545,774.651,870.75,506.392,870.75z"/>
</svg>
