<?xml version="1.0" encoding="utf-8"?>
<!-- Generator: Adobe Illustrator 16.0.0, SVG Export Plug-In . SVG Version: 6.00 Build 0)  -->
<!DOCTYPE svg PUBLIC "-//W3C//DTD SVG 1.1//EN" "http://www.w3.org/Graphics/SVG/1.1/DTD/svg11.dtd">
<svg version="1.1" id="图层_1" xmlns="http://www.w3.org/2000/svg" xmlns:xlink="http://www.w3.org/1999/xlink" x="0px" y="0px"
	 width="1024px" height="1024px" viewBox="0 0 1024 1024" enable-background="new 0 0 1024 1024" xml:space="preserve">
<path class="c1-fill" fill-rule="evenodd" clip-rule="evenodd" fill="#F04B36" d="M424.043,187.84c-0.1,0.04-0.189,0.04-0.279,0.04
	c0.09,0.099,0.179,0.139,0.279,0.238C424.092,188.019,424.043,187.929,424.043,187.84z M693.722,99.093
	c0.218,0.159,0.457,0.278,0.736,0.378C694.229,99.322,693.98,99.192,693.722,99.093z M390.067,181.011
	c-0.069-0.208-0.179-0.388-0.308-0.526C389.858,180.673,389.958,180.842,390.067,181.011z M799.069,188.347
	c0.188,0.467,0.564,0.795,1.212,0.845C800.103,188.625,799.634,188.396,799.069,188.347z M199.334,344.19
	c0.318-0.517,0.557-1.034,0.695-1.501C199.751,342.828,199.522,343.295,199.334,344.19z"/>
<path class="c1-fill" fill-rule="evenodd" clip-rule="evenodd" fill="#F04B36" d="M874.093,486.892c-7.614-6.362-15.984-3.837-16.959-13.559
	c4.623,0.706,6.72-1.163,7.803-4.105c-1.918-0.239-1.172-3.271-1.313-5.427c2.049-0.14,4.534,0.188,3.928-2.704
	c-7.614-1.64-4.482,7.992-7.805,10.834c-10.049-2.703-17.294,5.656-26.161,2.764c0.129-6.729,8.409-4.91,9.154-10.894
	c-6.69-4.155-7.714,7.853-14.354,8.13c8.141-0.606,1.122,9.911-2.615,9.533c-1.908-3.221-2.007-3.31-3.925-4.066
	c0.328-1.908,2.852-1.541,3.925-2.704c-0.417-3.181-2.574-5.656,0-8.181c-2.425,0.189-4.394,0.884-5.228,2.714
	c1.49,0.229,1.401,2.146,1.303,4.105c-11.352,2.575-16.163,3.837-27.426,6.779c-0.089-2.386,0.278-4.205,1.313-5.417
	c-4.017-0.984-4.771,1.352-7.853,1.352c-0.379,2.664,1.778,2.664,2.613,4.065c-5.516-0.04-8.409,2.575-11.77-1.352
	c8.449-7.664,15.835-7.246,22.237-9.532c-4.294-0.378-5.09-5.139-1.313-6.78c-2.425-0.188-4.384-0.884-5.229-2.704
	c4.91-3.37,10.467-8.419,15.656-4.115c0.367-5.517,0.934-4.155,3.926-8.131c-2.147,0.984-5.706-2.713-2.613-2.713
	c2.753,0.278,8.915,2.942,11.77-1.401c-12.853-1.779-12.247-1.918-22.197-4.066c-0.089-2.425,6.022-4.016,2.574-8.131
	c-4.354,4.443-6.64,3.598-13.042,6.779v-5.418c-4.016-1.033-2.524,3.738-6.541,2.704c-0.705-7.515-13.786-16.401-2.613-20.417
	c-0.567,2.614-3.737,2.476-2.615,6.829c7.237,5.885,11.542-3.509,18.31,0c-0.417,2.753-3.547,2.654-3.926,5.417
	c4.075,1.729,5.328-1.362,7.854,2.704c-0.229-3.359-0.279-6.59,2.574-6.769c5.368-1.034,5.934,2.893,7.854,5.417
	c1.301-4.155,4.384,0.606,5.229,1.352c3.498-3.598-1.682-5.139-2.615-8.121c-4.91,0.974-8.408,1.909-10.467-2.713
	c1.112-1.591,1.721-3.648,1.303-6.829c-2.525-2.286-6.492-3.171-7.805-6.77c3.222-0.238,4.027,2.147,6.502,2.714
	c-3.51-5.377-7.524-10.289-16.968-9.543c-0.039,4.493-3.737,5.239-7.844,5.467c-0.049-1.869,0.607-2.982,1.303-4.105
	c-7.146,0.746-15.229,4.623-15.656,8.181c-3.36-0.984-3.31,1.352-10.466,0c-0.746,5.746,5.139,4.622,5.238,9.523
	c-6.073-1.252-9.443,3.181-11.779-1.352c0.794-2.385,6.223,0.1,6.541-2.753c-6.302-3.876-18.36,4.105-23.5,1.352
	c3.27-1.958,5.14-3.27,9.156-1.352c-2.287-4.582-0.419-5.895,2.574-8.131c-6.034-3.697-12.476-5.656-16.968-1.362
	c1.173-4.383-3.409-2.843-3.918-5.467c3.828-4.433,11.998-1.252,17.009-6.769c-6.4-0.895-0.566-3.877-2.615-5.418
	c-0.149,1.074-4.353,4.105-3.936,1.352c6.083-2.247-5.09-8.41,2.623-10.884c-3.696,6.729,6.541,6.302,7.805,1.352
	c-7.477,0.089-5.985-9.155-10.428-12.246c8.887,1.55-0.089-8.459,2.623-8.131c2.237,1.729,6.869,3.509,9.115-2.753
	c-0.794-1.869-4.999-0.189-5.188-2.714c3.776-2.187-2.108-7.007,1.303-8.121c5.327-0.189,4.343,6.352,9.115,6.77
	c1.819-3.132,5.366-4.344,7.852-6.77c6.253,5.179,10.418-2.058,14.345,0c-1.073-4.354,2.047-4.215,2.613-6.829
	c-1.867-3.459-10.09-0.328-9.115-6.769c0.188,1.729,7.952,1.729,3.926,0c-4.482-1.362-8.459-0.656-11.769,0
	c-0.894,3.31,6.353,4.95,2.615,6.769c-4.155-5-11.313,1.591-11.779-6.769c5.516-1.083,6.64-6.73,9.164-10.895
	c-4.203,0.377-8.09,3.042-11.779-1.352c2.943-1.968,8.649-1.024,9.156-5.467c-3.173-0.746-6.72-1.124-6.541-5.418
	c-4.523-1.083-5.001,2.008-9.105,1.352c5.229,15.557-19.255,18.599-11.778,2.713c0,4.066,6.162,1.77,7.851,4.106
	c0-10.656,13.033-10.885,14.346-17.704c5.557-1.223,1.352,7.704,6.541,6.819c0.048-4.155-2.755-5.278-3.928-8.181h7.854
	c0.366-2.665-1.78-2.665-2.615-4.065c1.024-0.279,1.491-1.124,1.313-2.704h9.155c-2.625,3.359,1.301,8.081-1.313,9.533
	c-2.246-0.896-2.146-4.116-3.927-5.467c-1.263,3.827,2.525,5.785-1.311,10.884c3.976-0.089,3.129,4.91,7.851,4.065
	c-0.417-5.557,2.715-0.706,5.189-1.352c0.567-3.27-2.386-2.952-1.313-6.779c3.271,2.574,5.149-1.163,9.166,1.352
	c-0.051-1.869,0.605-2.982,1.303-4.105c-4.673-2.903-8.36-3.181-10.469-2.714c1.124-6.073,8.37-5.795,10.469-10.885
	c-10.886-5.427-14.534,3.638-22.196-1.362c4.113,0.656,5.098-1.909,7.851-2.704c-0.089-4.205,1.969-9.672-1.301-6.779
	c2.008,0.328,0.188,2.246-1.313,2.713c-0.517-3.926-1.213-3.23-3.927-6.829c0-2.654,3.549-1.729,2.614-5.417
	c-5.327-0.328-21.253,0.05-17.007-10.884c-6.63-3.271-9.713,6.541-15.656,0c0.288-2.525,2.157,0.795,2.623-1.352
	c-4.811-4.632-18.129-6.879-18.319,0c-2.476-0.289-2.852,1.541-5.188,1.352c2.623-4.95,3.18-12.058,9.115-13.598
	c-1.124,2.425-4.345,4.205,0,5.467c0.138-5.089,5.089-0.1,5.229-2.714c-5.508-2.286,2.058-3.688-1.303-8.171
	c-4.999,1.113-5.05-2.902-6.551-5.427c1.313,0,1.6-1.113,2.625-1.352c6.302,6.262,11.769,21.729,23.507,10.845
	c6.353,13.36,18.877,7.047,31.353,6.819c0.796-4.91-1.501-6.59-2.625-9.532c2.485,2.664,4.821,0.417,7.854,0
	c-0.14,5.656-0.239,4.622,0,9.532c4.444-3.509,9.064,6.352,13.081,2.714c-1.769-2.714-3.638-5.288-9.155-4.065
	c1.025-4.722-1.957-5.239-1.311-9.533c4.065-0.746,6.551-3.181,7.852-6.779c5.378-4.294,8.082,4.304,11.78,1.352
	c0.605-7.058-7.805-4.573-7.854-10.884c6.024-1.074,8.976,3.131,11.729,2.714c-3.976-6.78,5.607-2.993,5.24-10.895
	c-2.108,0.427-3.51-1.819-1.313-2.704c2.374,2.992,4.015,6.729,7.842,8.171c1.969-4.851,6.552,1.451,6.552-5.467
	c-12.804-5.696-25.289-10.368-26.124,5.467c-5.327-1.909-4.164,2.952-7.853,2.714c-2.097-1.819-7.425-3.181-3.926-6.819
	c-6.869-1.223-5.327,6.213-10.467,6.819c-3.638-2.992-7.059-6.213-14.345-5.417c-3.27,9.672-13.966,5.696-22.195,8.131
	c-0.328-2.575,1.45-2.993,1.262-5.428c-3.966,1.829-6.729,6.402-10.418,1.362c-5.189,5.696-12.574,7.614-19.581,8.131
	c2.474,3.409,0.982,10.606-1.354,13.598c1.354-4.533-4.065-2.107-6.49-2.713c-1.918,5.139,3.549,2.614,2.613,6.818
	c-10.605,4.911-9.67-5.467-13.091-10.885c3.132-1.262,5.329-3.548,6.552-6.818c-1.968,0.229-4.822-0.468-5.239,1.352
	c2.147,1.68-3.877,5.606-9.154,6.819c3.081-3.132,4.859-6.441,1.301-10.885c-2.146,7.664-11.212,10.934-16.957,10.885
	c0.884,2.664,7.287-0.328,7.854,2.714c-1.354,2.713-5.795,2.146-5.24,6.818c7.854,0.656,1.73-4.811,7.805-5.467
	c-2.058,3.23-1.869,6.689,2.623,4.065c-0.517,5.566,2.893,7.008,3.916,10.895c1.313-4.493,2.625,1.541,3.928,1.352
	c1.033-5.1,4.582-0.05,6.541-2.713c0.704,9.632,6.729,7.196,10.466,14.949c0.845-4.055,2.765,1.313,5.189,0
	c-0.089-2.375,0.328-4.205,1.313-5.417c-2.287-0.795-7.665,1.64-7.805-1.352c1.631-1.919,6.164-0.845,7.805-2.714
	c0.746,4.205,5.468,4.254,5.229,9.482c-7.844,4.533-12.287,6.313-22.196,6.829c2.058,0.09,4.533-0.188,3.925,2.704
	c-6.907-2.843-7.286-2.008-13.081,1.362c-1.629-5.795,4.345-3.648,5.229-6.829c-4.334,2.296-4.433-0.835-9.154-1.352
	c-1.959,1.68-8.638,5.417-10.418,2.763c6.729-4.025-2.763-10.517,5.189-16.362c-3.976,0.378-5.846,2.992-9.115,4.116
	c0.377-3.132-0.328-5.14-2.614-5.467c-0.049,1.869,0.607,2.992,1.312,4.115c-4.164-1.172-4.96,1.163-6.55,2.704
	c0.378-2.664-1.769-2.704-2.615-4.065c0.14-3.499,4.861-3.221,6.541-1.402c0.936-4.155,0.936-2.564,0-6.769
	c-13.646,2.475-22.563-3.459-31.351-5.428c1.679-1.908,5.655-1.352,9.153-1.401c1.592-4.394-4.254-1.024-2.613-5.417
	c1.641-0.1,1.778-1.73,3.926-1.353c0.19,2.048-0.466,5,1.313,5.418c2.008-4.722,5.417,0.328,6.49-5.418v5.418
	c-2.435,0.606-7.851-1.819-6.49,2.753c3.737-1.54,10.179-0.278,13.031-2.753c-5.378-3.131,4.673-1.263,2.615-5.418
	c-0.517-2.624-5.04-1.083-3.916-5.427c2.613-2.286,1.67,0.1,5.229,0v-5.467c-6.264-1.541-4.584,5.189-7.854,6.829
	c-3.319-1.5-6.213,4.105-7.854,0c5.846-2.902,10.189-13.509,15.707-12.246c1.073-5.696,2.753-10.746,9.153-10.885
	c0.428,3.181-0.227,5.229-1.301,6.819c6.679,1.73,5.14-8.181,11.729-4.115c-2.763,0.844-7.991,6.033-5.188,8.181
	c0.328-2.107,2.843-0.935,3.875,0c-1.262-6.352,5.368-4.394,7.854-6.819c0.934-4.165-1.313-4.96-1.313-8.131
	c6.63-3.271,9.583-0.05,14.394,2.704c-2.613,2.247-1.688-0.139-5.237,0c-0.318,3.976,2.941,4.165,2.624,8.181
	c5.885-2.246,4.483-1.59,14.344-2.753c1.163-4.344-2.009-4.254-3.928-5.427c-0.138,1.69-0.376,3.23-2.574,2.713
	c-5.04-1.023-3.03-9.155-2.613-12.246c1.212,2.336,4.114,2.992,6.541,4.115c-1.163-4.394,3.368-2.853,3.875-5.467
	c-4.104-3.788-6.907-1.68-11.719,0c-0.706-3.788-1.918-7.058-2.625-10.835c3.132,0.507,2.854-2.525,6.541-1.412
	c-0.784,7.664,2.902,0.756,6.502,1.412c-4.065,7.336,6.63,6.401,6.541,13.548c-2.564-2.247-1.631,0.139-5.24,0v6.819
	c2.765,1.819,3.887-0.656,7.854,1.352c-0.507-5.974-0.328-11.212,6.541-9.533c0.378-4.105-4.206-5.278-1.303-8.121
	c4.434,3.082,8.738,6.302,13.032,9.483c0.606-7.992,8.221-0.139,10.467-4.066c-0.794-2.286-3.926-2.246-5.229-4.065
	c1.819,0.05,2.893-0.656,3.916-1.352c2.297,5.557,8.978,0.318,11.87,0.507c-0.786-1.68,0.476-5.467-0.091-7.336
	c4.721,0.378,6.263-2.475,10.417-2.703c0.051-6.78-6.072-3.132-7.803-5.428c1.313-5.328,4.493-0.229,9.115-1.352v4.065
	c4.254,1.68,1.023-4.394,5.238-2.714c1.959,1.591,5.836,1.173,5.229,5.428c-3.977-0.984-4.771,1.401-7.852,1.352
	c0.934,4.155-1.303,4.95-1.303,8.181c3.033-0.467,5.04,0.179,6.541,1.352c-0.567-4.671,0.417-7.753,5.229-6.829
	c-4.9-7.465,5.148-4.761,5.238-10.834c-2.715-2.664-10.606,0.139-9.164-6.819c-4.902-0.566-4.623,4.245-7.844,5.467
	c0-1.829-2.297-1.262-2.625-2.763c1.363-1.302,2.664-2.664,3.928-4.065c-1.491-0.229-1.401-2.147-1.303-4.065
	c-6.263-1.541-4.582,5.188-7.803,6.779c-3.271-1.123-7.009-1.779-11.778-1.352c1.679,5.368-3.788,3.31-3.928,6.819
	c1.918,0.746,6.779-1.59,6.551,1.352c-3.697,1.124-4.442,5.329-6.551,8.131c-4.999-1.59-6.779-6.541-11.729-8.131
	c-3.549,0.845-3.271,5.657-7.854,5.428c-2.146-2.108,0.428-5.289,1.313-8.132c-4.673-1.073-11.58-6.968-9.155-10.894
	c1.452,6.59,14.433-2.843,16.958-4.056c-7.247-0.149-7.803-7.296-10.418-12.247c2.426,0.04,2.754-1.073,1.303-2.713
	c4.114,1.491,2.951,0.089,7.854,0c0.237-9.811,4.065-2.147,6.5-6.819c-6.869,2.992-5.378-9.672-9.115-5.427
	c2.476,3.32-4.115,1.69-6.541,5.427c-1.262-2.525,3.926-4.533,0-5.427c-3.459,6.083-10.883,5.517-17.007,4.065
	c-0.468,4.065-0.755,8.271-3.928,9.533c-4.154,1.173-4.015-2.147-6.49-2.753c-0.149,8.081-11.411,8.598-17.019,6.819
	c-1.163,2.386-2.891,4.215-5.229,5.427c-3.319-2.385-6.351-3.459-9.115,0c1.78-5.467-2.852-4.304-2.613-8.131
	c0.517-1.729,1.68-2.803,3.926-2.713c0.517,2.574,0.468,5.845,3.928,5.417c-1.313-3.638-2.902-6.958-3.928-10.884
	c-3.081-1.164-5.655,4.771-6.54,1.352c2.236-2.336-0.517-6.352-2.623-8.131c3.785-1.869,8.507,4.443,14.353,1.362
	c-0.338-5.845-8.181-5.378-11.729-4.116c2.007-6.163-1.033-5.745-1.313-12.196c3.838,0.328,4.861,1.869,6.54,0
	c-3.737-2.664,4.633-4.155,3.928-8.171c-5.09-1.223-10.605-4.026-13.081-4.066c1.957-1.59,3.687-3.409,5.237-5.467
	c3.072,0.417,2.426,4.712,6.531,4.105c1.88-0.318,2.196-2.236,3.887-2.704c0.646-4.304-1.828-5.328-2.574-8.181
	c-9.762,2.425-7.993-7.107-14.394-8.181c-2.893,1.074-1.68,6.401-5.229,6.829c0.089-2.386-0.279-4.255-1.313-5.467
	c2.763-3.787,4.91,0.229,6.541-4.066c-6.49-2.197-4.155,4.722-9.156,4.066c2.427-2.386-1.728-3.927-2.613-6.779
	c-0.427,5.377-4.026-1.024-5.189,2.713c3.409,6.163,2.615,9.483,3.928,16.302c3.547,1.034,2.613-2.664,5.188-2.704
	c1.472,2.197,1.073,6.272,3.183,7.783c-3.45-1.481-9.603-0.1-12.298-2.316c-0.517,6.024-5.566,2.237-7.853,4.065
	c-1.163,6.303,3.37-1.869,3.927,2.704c-3.459,2.525-15.745,4.632-13.081,12.246c4.482-4.622,1.401,2.336,5.229,1.353
	c4.722-5.368,12.336-6.77,16.968-6.82c-3.319,6.303-13.737,11.63-20.894,9.533c-2.049,2.843-3.032,6.819-7.844,6.819
	c-2.852-10.746-18.131,4.065-23.509-4.115c-2.804,3.698-9.244,2.525-15.646,4.115c-0.666,7.942-8.141,8.787-10.476,14.95
	c-4.852,0.517-7.654-1.113-7.844-5.467c8.688,1.083-1.313-9.245,5.229-10.885c1.362-0.139,2.664,5.885,3.928,1.402
	c-2.715-3.41-3.55-8.081-3.928-16.352c-3.499,3.181-2.147,9.255-9.154,5.467c-1.502,4.573,0.934,5.795-1.313,8.131
	c-2.287-2.525-4.016,1.869-5.229-2.714c0.418-2.753,3.549-2.664,3.926-5.417c-4.91-1.968-2.484,3.738-6.5,2.704
	c3.091-3.688-2.336-7.754,1.312-10.885c2.854,1.59,4.722,4.115,7.804,5.467c-1.223-4.155,8.31-3.926,3.926-6.819
	c-1.262,2.525-10.795,2.286-10.467-1.352c3.32,0.229,4.104-2.107,5.229-4.066c-7.564,3.599-1.58-1.968-6.491-4.065
	c0.846,8.27-9.722,3.459-11.779,5.418c2.247,1.212,3.6,5,0,5.417c-3.081-0.417-2.941-4.205-5.229-5.417
	c-0.567,2.564-2.804,3.409-2.613,6.769c3.876,0.895,8.776-0.646,5.229,5.477c11.44-1.829-7.755,20.318-18.271,9.483
	c-4.015,7.942,0.567,0.885,0,10.885c4.672-1.77,4.763,0.099,9.115-1.352c0.507-2.336-1.918-3.509,0-4.065
	c1.024,0.278,2.615,0.049,2.615,1.352c0.089,4.165-4.672,3.271-3.927,8.131c4.583-0.278,9.394-7.386,11.77-5.417
	c-3.5,3.787,1.222,6.729,1.312,10.885c-6.729,2.525-0.466,13.926-9.154,16.312c-0.328-2.853-5.757-0.378-6.551-2.714
	c-3.071,4.155-6.441,6.819-3.877,13.598c-1.959-0.229-4.861,0.467-5.229-1.352c0-2.247,3.598-0.795,3.926-2.763
	c-6.958-3.27-10.565,3.181-14.393,1.401c3.131-2.942,5.745-7.942,5.239-10.884c7.99,3.32,10.416-6.212,18.269-9.533
	c-2.574-2.247-1.64,0.139-5.188,0c0.696-3.181-0.237-5.746-1.312-9.533c-2.664,2.614-3.032,5.517-1.313,9.533
	c-2.147-0.984-5.696,2.713-2.615,2.713c0-0.745,1.035-1.551,1.313,0c-0.328,1.074-0.049,2.704-1.313,2.704
	c-5.933-5.417-11.023-4.016-18.31-6.77c-1.55,8.221-6.122,5.188-11.729,9.533c-2.902-5.934-4.811-5.517,0-10.895
	c1.163,2.107,4.812,0.706,5.229,0c-1.78-3.548-9.156,0.845-9.156-1.352c0.984-9.344-1.64-21.541-1.312-5.467
	c-1.77,0.467-2.524,1.968-5.229,1.402c0.09-1.77,1.681-1.919,1.303-4.116h-5.229c0.229,5.656-2.247,7.485,1.303,10.895
	c1.918-0.517,7.007-1.869,7.852-1.362c1.213,10.566-7.523,16.779,0,25.845c-5.745,0.05-8.32,8.688-13.081,5.417v2.714
	c-0.795,0.089-1.54,0.229-1.312,1.352c7.991,4.065,9.204-1.491,14.393-5.417c0.983,5.14-1.591,6.491-1.302,10.885
	c-1.78-0.417-2.525-1.958-5.238-1.352c-0.983,6.262,5,1.869,5.238,4.065c-3.319,5.418-13.837,3.042-11.779,8.131
	c2.386-2.475,7.893-1.729,10.468-4.066c2.941,4.066,1.022,12.147-2.615,13.599c3.877,0.835,4.9,17.426-1.312,16.302
	c2.008-9.204-4.444-1.729-6.541-5.417c1.591-0.139,3.081-0.417,2.614-2.714c-1.023-0.318-1.491-1.163-1.313-2.704
	c-6.213,0.278-8.638,4.572-14.334,5.417c0.697,0,1.442,1.074,0,1.352c-2.852,0.238-0.605-4.811-1.311-6.769
	c-6.592-0.05-9.443,3.738-11.779,8.131c-5.607-1.919-10.418-13.509-15.656-4.066c2.296,1.213,4.025,3.032,5.188,5.417
	c-3.08-3.966-8.688,5.517-13.031,0c2.426-6.024,7.008-9.9,9.155-16.312c2.425,6.412,9.165,0.427,11.729-1.352
	c-0.189,3.37-0.229,6.59,2.615,6.779c2.663-0.328,10.884-1.918,14.393-5.427c0.935,3.698-2.613,2.764-2.613,5.427
	c3.688-1.123,3.359,1.909,6.49,1.402c-3.688-7.992,1.959-4.483,3.926-8.181c-7.425,0.468-11.213-2.853-18.27-2.713
	c-2.058,4.821,4.434,0.795,3.926,4.065c-1.312,0-1.54,1.124-2.613,1.362c-3.738-3.509-7.854-2.107-7.854-8.131
	c3.221,0.935,7.754,2.098,9.155-1.401c-1.541-0.188-1.401-2.147-1.302-4.066c-2.714,0.796-8.599-1.68-9.166,1.353
	c2.387,0-2.236,3.787-2.613,5.467c-2.336-5.557-6.024-4.394-10.418-5.467c-0.09-2.336,0.975-3.459,2.614-4.066
	c2.296-0.368,6.491,3.837,7.804,0c-7.754-2.425-6.73-5.606-15.656-6.769c-1.908,6.401-12.475,5.745-5.229,10.835
	c-8.648-6.074-20.835-0.984-28.737-6.491c0.229,1.908-1.213,2.147-1.313,3.777c-5.696-1.77-3.926-1.213-5.228,2.714
	c-1.223-2.336-4.811-2.197-3.927-6.77c-0.884,2.654-7.286-0.328-7.853,2.704c-2.525-2.753,2.614-9.016,7.853-8.181
	c3.32,4.444,3.32,7.157,10.188,5.518c-2.018-1.442-3.697-3.639-4.959-6.869c-6.63-1.68-12.665-4.016-14.344-10.835
	c1.779-0.099,2.853,0.606,3.876,1.352c2.476-6.729-4.572-10.517-6.491-8.181c2.714,2.485-2.525,8.181-5.238,9.532
	c-0.368-2.375,3.698-6.769,0-8.17c-2.893,1.958-2.942,6.908-9.155,5.467c1.262,2.883,0.904,7.535,2.296,10.298
	c-1.57-1.68-7.018,0.616-7.525-2.167c0.557-4.583,5.089,3.638,3.917-2.714c-3.261-1.59-5.507-4.205-5.229-9.533
	c-6.491-2.197-7.753,5.09-11.729,1.352c0.278,5.746-4.623,6.074-5.238,10.895c-3.261-1.124-1.819-7.157-3.917-9.494
	c-5.238-0.695-6.352,5.567-9.165,0c-2.803,7.008-12.425,6.968-14.344,14.96c7.753-2.992,9.304-6.123,15.656-2.764
	c-4.115,2.525-7.107,6.213-7.853,12.246c1.501,0.279,2.058,1.491,2.624,2.704c7.942-0.368,9.016-7.843,15.696-9.483
	c0.238,4.771-4.394,4.443-5.229,8.131c2.565-0.378,2.615,1.869,3.917,2.713c0.328-2.803,5.746-0.328,6.541-2.713
	c4.771,5.099-0.746,7.147,1.312,12.246c4.672-1.779,4.771,0.089,9.115-1.362c0.417,2.764,2.614,3.648,3.926,5.427
	c-4.165-1.173-4.065,2.098-5.239,4.105c5,2.624,8.738,2.813,13.082,0c0,1.362,1.074,1.59,1.312,2.714
	c-4.722,5.188-10.705,0.517-14.394,6.779c0.1-2.336-0.984-3.459-2.564-4.065c-2.674,3.598-4.066,8.499-11.779,6.819
	c-0.935,5.845-5.328,8.032-6.541,13.548h-5.238c1.69-1.591,0.566-5.09-1.302-6.77c-0.189,3.36-4.394,0.418-5.238,0
	c-0.179,1.591,0.239,3.877-1.263,4.066c-0.934-4.066-5.229-4.533-10.467-4.066c-0.318,3.966,2.942,4.155,2.624,8.171
	c-4.861,1.968-11.123,8.459-3.926,8.132c-0.616,5.277-5.845,5.705-9.155,8.181c2.097-0.607,4.383,5.049,1.302,5.417
	c-5.239-6.77-13.32-10.606-18.271-17.664c6.501-4.711,10.795,2.754,15.656,4.066c-0.378-2.665,1.77-2.704,2.615-4.066
	c-3.221,0.189-5.418-0.695-6.541-2.703c2.992,0.367,4.95-0.328,5.239-2.764c-6.083,2.147-16.083-1.123-13.042-8.131h-5.228
	c-1.73,3.409,5.128,4.254,1.302,5.427c-6.491-1.73-6.451,3.31-11.779,2.704c-2.615-1.352-2.058-5.984-6.541-5.417
	c2.475,4.86-0.696,8.27-3.927,10.884c-6.63-2.336-13.449-0.04-19.572,4.066c-2.763-2.098-4.861-4.901-7.853-6.77
	c-3.131,5.317-7.475-2.625-15.656,0v-6.829c-3.827-3.45-10,2.147-7.843,4.065c0.318-2.058,2.147-0.189,2.614,1.401
	c-4.205,1.452-6.401,3.41-2.614,6.779c-4.821-0.934-5.755,2.147-5.238,6.819c5.984-0.139,11.59-1.213,15.696,0
	c1.123,4.344-4.294,1.829-3.917,5.427c2.058,2.237,5.745,6.441,10.467,9.533c-2.524,0.557-2.386,3.876-6.55,2.704
	c-0.507-2.336,1.918-3.509,0-4.116c-1.163,2.435-3.171,3.976-3.917,6.829c4.433,4.294,8.688,0.606,10.467,6.769
	c-4.115,0.288-5.377,3.509-7.853,5.467c-4.95-1.958-12.107-9.761-5.229-12.236c-5.099-4.632-5.944,3.876-5.238,9.533
	c-8.927-0.239-13.648,3.876-16.958,9.483c10.179-2.525,21.68,1.173,31.352-1.352c-2.018,5.884-6.263,9.482-13.082,6.819
	c-0.149,3.876-1.64,6.451-6.55,5.417c-1.113,4.344,4.304,1.869,3.926,5.427c-9.155,0.229-11.123,3.41-22.196,2.753
	c0.755-4.343-2.426-4.205,0-6.819h-7.843v12.237c-3.181-4.483-8.221-2.286-10.468,1.362c-2.335-2.058,0.279-9.304-5.188-8.181
	c-2.197,0.049-0.746,3.787-2.614,4.105c-3.091-1.352-8.32-0.457-7.853-5.458c5.417,3.221,5.239-4.632,10.467-5.427
	c-0.377,0.845-3.27,5.239,0,5.427c2.664-2.524,3.271,2.008,6.541,1.353c1.074-5.606-8.36-8.688-1.353-12.197
	c2.476,2.386-1.55,3.976,1.353,6.779c6.968,1.074,4.811-8.837,11.729-4.065c3.271-2.058-3.41-9.025,0-10.894
	c2.058,0.139,1.034,3.459,3.927,2.713c0.417-1.819,1.869-2.575,1.302-5.417c-8.131,2.097-7.426-4.96-13.082-5.467
	c-6.024,8.777-25.467-6.918-23.499,10.885c-5.656-0.885-6.541,3.181-7.853,6.819c2.476,0.289,2.893-1.541,5.239-1.352
	c-2.436,6.779,0.229,12.664,1.302,25.794c3.271-0.139,4.116-2.574,5.229,1.353c-0.695,2.057-1.908,3.459-2.614,5.467
	c5.05-3.082,5.1,1.451,9.165,2.714c1.909-1.59,2.008-5.139,3.917-6.78c4.165,2.754,4.583,1.541,9.115,2.714
	c-1.163,4.901,7.336,6.024,5.934,10.746c1.034-0.606,2.625,2.475,4.533,1.501c1.362-7.803,10.517-8.28,14.394-4.115
	c-4.811,2.475-5.278,2.336-11.779,1.352c0.049,1.869-0.607,2.992-1.302,4.116c4.245,3.082,5.467,0.934,9.155,4.065
	c-0.934-5.049,2.058-6.034,6.541-5.417c-3.221-7.247,1.968-7.247,6.491-4.115c0.189-3.32,0.189-6.541-1.302-8.131
	c-4.155-1.212-2.714,3.499-5.188,4.066c0.417-3.181,1.541-5.606,2.574-8.181h-3.887c-0.835,0.099-1.581,0.238-1.302,1.401
	c1.68,0,1.63,3.738,0,4.066h-2.614c1.163-3.966,1.163-4.205,0-8.171c2.804,2.097,8.032-3.887,10.417-2.714
	c-2.803-2.942-7.286-0.706-9.115,1.352c-3.688-7.564,2.803-5.746,7.803-8.131c2.525,7.247,0.467,1.401,3.926,0
	c0.656,3.369,3.509,4.533,3.926,8.131c3.042-0.417,5,0.239,6.541,1.362c15.984-11.869,12.803,11.262-2.614,10.885
	c2.614,13.171-14.533,5.745-14.394,16.302c4.394,0,4.493-4.394,9.165-4.065c-0.188,1.59-2.336,3.091,0,4.065
	c2.654-3.131,4.344-7.237,9.155-8.121c0.278-2.575-1.501-3.042-1.312-5.467c4.025,3.36,7.524-1.173,10.467,2.704
	c-2.197,3.181-7.097,3.509-10.467,5.467c-0.279,2.575,1.451,2.992,1.312,5.417c-5.467,2.436-12.425-3.221-11.779,6.829
	c9.493-7.525,12.436,0.557,18.32,6.77c5-0.139,15.706-8.082,18.27,2.713c-1.68,2.754-6.908,1.869-7.853,5.467
	c7.147,1.541,9.672,5.845,15.706,5.417c0.606-4.244-1.869-5.328-2.615-8.17c-2.992-1.829-4.911,3.499-5.239,0
	c6.491-2.764-0.835-4.443,3.927-6.78c0.656,6.591,5.795,0.557,7.853,2.714c-0.139,2.147-3.37,1.074-2.624,4.066
	c8.648,1.958,10.566-0.05,15.656-4.066c-0.417,1.869-1.869,2.615-1.302,5.467c3.081,0,3.876-2.386,7.842-1.401
	c1.64-4.394-4.205-1.034-2.614-5.427c4.016,1.033,2.525-3.738,6.541-2.704c3.926,1.819,8.787,2.614,9.155,8.131
	c-9.205-4.493-11.302,12.197-22.236,5.467c-4.115,7.653-11.869,8.458-15.656,13.588c5.467,4.722-8.499,7.952-1.302,10.895
	c-12.574,3.688-8.181-5.746-22.197-5.467c1.352,9.9-15.288,22.514-11.779,29.9c-2.753,2.992-3.738-0.646-7.853,0
	c5.606,6.501,0.05,6.541,1.313,12.247c0.745-6.779,5.934-0.467,7.853-5.418c1.541,2.008,5.417,1.591,5.229,5.418
	c-3.41,0.517-3.648,4.344-9.155,2.713c0.795,3.688-5.884,6.401-2.614,8.171c1.302-4.155,3.499,1.541,5.229,1.361
	c3.22-4.532,7.057-6.173,11.779-2.714c-0.238-3.827,3.688-3.409,5.189-5.467c-0.934,7.197,8.171-5.885,6.531,4.115
	c3.698,0.179,3.28-3.887,5.238-5.467c-1.451-0.288-2.008-1.5-2.614-2.713c-4.91,1.213-10.566,1.68-14.344,4.065
	c1.869-5.139-3.608-2.575-2.624-6.779c0.289-1.541,1.451-2.097,2.624-2.704c3.41,4.106,10.229,4.712,18.271,4.066
	c-1.262,7.982,4.9-0.239,5.229,5.417c-3.181,2.713,2.197,5.845-2.614,6.819c-4.821-6.819-19.861,4.065-17.008,9.483
	c-0.378-1.63,3.777-4.672,3.926-1.352c-2.992,5.049-11.869,8.082-11.729,12.247c-2.753-5.427-7.058-0.756-6.541,1.352
	c-4.493-2.753-5.795-1.769-11.779-1.352c2.097,6.59-9.761,2.286-11.729,8.17c5.467,10.239-24.482,3.788-14.384,10.895
	c-6.461,2.893-11.829,2.287-16.968,4.066c4.95,1.113,0.467,6.213-2.614,6.77c-2.196-2.704,0.089-1.73,0-5.418
	c-6.64-0.656-3.698,10.378-1.312,12.247c-0.606-2.247,7.107-2.247,6.541,0c-1.262,5.884-11.212,0.606-10.467,5.417
	c8.37,6.818,17.008-7.524,28.737-2.714c-6.63,1.689-12.892,3.788-16.958,8.131c4.951-0.656,8.311,0.428,10.418,2.764
	c5.139-12.436,15.794-3.737,23.548-8.181c-6.263,7.475,4.483,8.926,9.115,10.884c-5,7.765-17.386,4.722-18.271,10.895
	c1.073-4.959-9.861-3.319-9.155,0c2.187-0.099-6.034,14.155-13.041,9.483c-2.247,3.132-3.877,6.869-6.541,9.532
	c-2.197,0-0.746-3.786-2.614-4.065c-1.779,3.599-6.074,4.533-6.551,9.483c7.764,1.401,2.018-2.803,6.551-4.065
	c3.31,2.336,4.572-1.541,6.541,1.353c-3.37,0.188-5.099,1.968-5.238,5.467c2.286,0.288,6.541-1.401,5.238,2.713
	c5.696-0.417,7.475-4.9,13.042-5.467c0.646,4.295-3.091,5.557,1.302,6.819c3.32-2.286,8.459,3.787,11.779,2.713
	c0,2.059-4.861,5.558-1.312,6.78c-1.173-6.313,3.36,1.908,3.926-2.714c-1.034-0.278-2.574-0.05-2.614-1.352
	c5.835,1.868,5.835,0.417,9.105-2.715v5.418c4.622-2.664,2.614-1.77,7.853,0c2.146-0.974,8.359-7.803,13.081-5.418
	c0.517-2.335-1.958-3.508,0-4.065c4.394,1.264,3.787,6.163,7.803,1.353c0.239,2.019-0.417,5,1.313,5.428
	c0.328-1.451,2.197-3.271,2.614-1.362c-0.845,0.427-1.73,0.895-2.614,1.362c-10.795,5.655-23.221,12.097-33.926,13.588
	c1.491,0.238,3.698-0.229,3.877,1.362c-4.205,1.49-8.171,3.27-11.729,5.467c2.992,5.467-4.9,10.278,3.926,12.196
	c-0.368-3.081,0.328-5.1,2.614-5.428c1.223,5.289-5.089,5.617-1.302,9.533c4.861,1.451,2.058-5.089,6.491-4.105
	c4.165,2.058,5.139,7.375,11.779,6.819c0.189-2.525,0.835-4.532,2.615-5.418c2.664,2.704,3.459,0.328,5.229-1.401
	c1.272,1.868,3.459,2.754,5.238,4.105c1.829-1.72,0.557-6.68,3.876-6.818c1.73,5.745,4.304,0,7.853,0
	c-4.254,4.164-5.417,11.539-14.344,10.894c6.163,7.376,16.441-0.755,26.123-1.361c0.457,3.132,5.696,1.313,5.229,5.417
	c-2.336-2.515-4.066,0.378-5.229,2.714c2.475,1.779,6.769,0.606,7.843,0c-1.023-0.277-1.541-1.123-1.302-2.714
	c5.656-1.58,8.31-3.031,14.344,0c-0.567-7.981-15.517-1.073-13.042-12.236c2.992,2.704,1.451-0.328,3.876-1.352
	c4.116,3.22,6.918,0.646,10.468,2.753c0.983-5.427,7.524-3.836,10.477-1.401c-0.289-3.876-0.189-7.386,3.916-6.778
	c0.378,7.852,11.073,5.605,9.115,12.245c4.344-5.277,4.394,5.328,7.853,5.418c0.835-4.065,2.803,1.313,5.229,0
	c0.189-2.525,0.845-4.532,2.614-5.418c0.934,4.672,3.926,0.886,6.55,0c0.746,2.854,3.221,3.877,2.614,8.132
	c6.958,1.163,4.812,4.294,11.73,4.115c0.467-9.582-11.591-6.084-13.042-13.608c4.155-4.155,3.877,3.887,7.803,4.075
	c-0.239-3.787,4.304-9.96,2.614-12.246c2.296-0.09,4.065,0.328,5.238,1.353c0.557-5.09-4.065-4.812-5.238-8.132
	c5.467,1.541,12.107,2.296,14.394-2.753c1.451,0.328,2.008,1.54,2.614,2.753c0.188,3.37-2.048,4.205-2.614,6.779
	c1.541,0.229,3.698-0.239,3.926,1.353c-2.425,0.188-4.394,0.884-5.238,2.713c4.632,2.664,4.771-1.779,10.477-1.352
	c0.606-4.255-4.026-3.092-2.625-8.132c1.64,3.45,6.411-1.262,6.501,1.353c1.123,0.984,1.212,6.123,3.926,9.532
	c1.262-2.942,5.328,2.476,7.843,2.704c-3.966,3.459-19.155,2.436-7.843,9.493c-0.944,2.197-6.411-0.288-5.239,4.115
	c6.024,2.335,8.837-1.224,9.156-4.115c1.829,0.09,2.853-0.606,3.926-1.362c-0.746,3.32-5.04,2.903-3.926,8.181
	c2.992,1.869,4.91-3.508,5.238,0c-1.073,3.838,1.83,3.51,1.313,6.779c-3.37-0.656-7.435,4.812-3.927,6.819
	c1.63-4.155,7.426-2.386,11.77,0c-5.557,3.737-8.548,10.139-13.081,14.95c-6.492-2.098-13.688-0.975-19.583,2.714v-4.065
	c-8.082,0.139-30.556,9.443-22.236,10.845c-3.181,0.785-6.68,1.163-6.491,5.457c5.606,3.977,8.688-12.326,16.958-5.457
	c-5.238,2.753-9.155,6.818-14.344,9.532c-4.583-7.436-7.624,2.893-14.394,1.353c1.263-9.951-9.582-7.246-11.779-13.599
	c1.074-4.582,0.09-7.146,3.927-10.846c4.533,2.942,3.181,3.132,1.312,8.132c9.155,0.517,12.475-6.073,18.32,1.352
	c12.237-24.811-29.393-8.121-41.829-13.588c-5.04-1.173-2.146,5.935-7.842,4.104c0.795-1.302,3.031-5.039-1.313-4.104
	c-0.895,6.54-19.533,4.573-23.509,12.236c1.968,0.238,4.821-0.468,5.239,1.352c-1.73,0.051-1.213,2.386-2.614,2.714
	c-11.551-1.908-25.328-4.899-30.049,8.181c4.115-0.655,5.328,1.681,6.541,4.066c-2.853-0.239-4.155,1.123-3.926,4.105
	c3.697,1.123,3.37-1.959,6.541-1.393c1.68-3.369-3.827-5.616,0-6.779c2.803,4.016,0.935,5.935,6.501,8.172
	c-1.729,0.894-2.436,2.902-2.575,5.427c4.115-0.656,2.953,4.155,7.803,2.704c-1.909-5.179,5.845-0.279,3.927-5.418
	c-0.835-2.753-6.124-0.885-6.541-4.105c3.499-4.215,5,3.589,7.853,0c-0.934-4.442-4.672-5.983-7.853-8.141
	c-2.425,0.148-0.885,4.493-3.927,4.075c-0.606-6.729-5.795-7.485-9.115-8.131c5.566-3.647,11.59,3.638,15.656-1.401
	c2.764,4.9,5.566,1.401,9.165,5.457c1.123,4.354-2.058,4.205-2.625,6.779c4.771-1.312,1.124,6.123,5.239,5.467
	c0.139-2.147-0.189-4.722,2.614-4.105c0.278-2.574-1.491-2.991-1.302-5.427c2.336,2.436,5.089-1.591,7.843-2.714
	c-2.385,0.188-3.082-1.352-2.614-4.056c2.475,0.278,2.853-1.551,5.239-1.401c-1.591,5.695,5.467,2.425,6.491,5.457v5.428
	c6.918-1.174,0.189,3.32,5.229,4.105c1.55-4.951,5.656,5.565,7.853,0c-0.885-3.172-5.935-2.009-6.541-5.458
	c4.155,1.163,4.065-2.156,6.541-2.714c1.074-4.722-2.425-5.745,0-8.181c-0.795-1.868-5.05-0.188-5.239-2.714
	c3.28-0.974,4.165-0.139,6.551-4.056c-2.475,4.712,0.646,6.024,3.926,8.132c0.368,2.703-1.779,2.703-2.614,4.105
	c4.522,1.54,2.375-0.656,3.916,4.065c3.37-2.942,7.385,0.099,11.729,0c-1.312,2.714-11.68,4.165-7.803,10.885
	c1.779-3.122,5.378-4.384,7.803-6.819c4.533,2.196,11.64,5.984,20.934,6.819c1.213-2.516-3.926-4.533,0-5.458
	c4.016,0.785,3.976,5.786,7.803,6.819c-5.884,2.097-0.557,7.475,2.614,8.131c-4.105-0.189-4.344,3.639-9.105,2.754
	c0.607,6.958-2.435,10.139-9.165,9.482c-1.253,7.107-13.221,11.73-15.696,21.779c8.459,2.008,6.958-2.147,13.082,1.353
	c-1.024-8.082,4.672-6.959,7.853-4.065c1.163-5.746-1.362-7.704-3.926-9.533c1.501-1.113,3.509-1.77,6.541-1.352
	c-1.729,7.753,3.698-0.378,5.189,4.065c0.974,4.672-5.278,1.729-3.877,6.819c6.77,2.057,3.599-6.213,7.803-6.819
	c0.328,1.957,2.147,2.285,2.614,4.064c0,2.715-3.548,1.73-2.614,5.468c4.672,2.614,6.073,1.541,10.467,2.714
	c-0.05-2.336,0.974-3.509,2.614-4.065c-5.099,6.253,7.942,2.753,9.155,6.769c-0.417,5.05-12.753,4.771-7.853,10.885
	c1.123-4.016,1.968,3.142,5.238,1.362c0.378-2.804,3.459-2.714,5.239-4.065c0.179-3.41-2.058-4.205-2.625-6.829
	c2.992,0.428,1.451-3.917,3.926-4.056c0.239,1.63,1.402,0.835,2.575,0c-1.083,7.146,3.549,0.507,5.229,5.418
	c-4.016,4.344-2.197,0-7.803,0c5.278,6.729-2.664,10.327-2.614,19.064c5.935,2.197,4.105-6.64,7.803-2.764
	c1.074-3.826-1.819-3.498-1.302-6.769c4.573,2.286,4.573,0.517,6.531-2.714c2.485,2.524,3.28,0.14,6.55,0
	c0.795,3.132,7.236,7.386,7.843,2.714c-4.811-4.533-13.827-10.606-6.541-16.312c-2.197-2.237-7.664-1.074-6.541-6.82
	c6.869,2.894,13.836,2.059,20.884-2.713c0.328-2.564-1.441-2.991-1.302-5.417c4.116,1.77,7.237-0.835,9.156,1.352
	c-1.591,2.525-10,4.91-6.541,8.181c3.042-5.238,1.918,5.09,5.239,4.065c1.252-2.475,1.63-7.941,5.228-4.065
	c1.491-2.286-0.606-6.958,3.927-4.115c2.236-3.459-1.501-4.761,1.312-6.77c0.885,3.599,3.082,5.835,6.53,6.77
	c-3.031,0.467-6.113,0.895-5.228,5.468c4.443-2.237,3.927,0.139,6.541,2.713c3.648-10.377,14.811,0.328,19.583-5.468
	c1.869,5.846,4.86,2.147,9.155,5.468c0.139-1.68,0.378-3.22,2.614-2.713c0.566-4.673-0.508-7.615-1.303-10.885
	c1.729-0.418,2.475-1.958,5.188-1.353c-1.173-4.771,0.278-4.492-2.574-8.181c3.271,2.574,5.099-1.123,9.115,1.352
	c-0.745-4.482,4.394-9.811,6.54-6.769c-2.713,1.958-5.744,4.482-1.311,6.769c-2.993-0.367-4.901,0.328-5.229,2.714
	c4.622,0.189-2.763,4.532,1.302,4.115c3.459-5.238,5.656,2.147,6.551,4.066c7.564-2.107,11.909-11.362,24.801-4.066
	c-3.965,0.836-5.885,3.778-6.53,8.132c3.549-0.935,2.515,2.803,3.917,4.105c3.598,0.983,2.674-2.704,5.238-2.755
	c0.139,1.681,0.377,3.222,2.614,2.755c0.278-5.746-4.95-5.746-5.239-10.885c3.182,0.556,2.854-2.476,6.551-1.353
	c6.074,24.245,0.975,66.679,2.615,101.957c1.729,37.524,10.277,82.663,5.228,123.687c-1.679,1.401-3.498,2.714-5.467,3.877h42.714
	c-10.746-15.606-7.714-44.811-9.813-71.818c-4.064-52.008-12.008-109.064-6.54-160.415c2.426-1.124,4.762-2.286,7.853-2.754
	c0,1.401,1.024,1.63,1.303,2.754c-1.968,1.123-2.803,3.409-2.615,6.779c5.936-3.37,8.55-10.14,14.345-13.599
	c-0.846,6.352,5.557,5.089,7.853,8.17c-4.86,1.452-3.737-3.409-7.853-2.753c0.935,3.599,2.844,6.124,7.853,5.468
	c-0.277-2.565,1.491-2.992,1.303-5.468c-3.967,0.09-6.63-1.212-7.844-4.065c0.646-1.591,1.401-3.082,2.615-4.065
	c1.122,3.977,3.32-1.779,6.541,0c2.097,4.204,1.122,5.278,2.613,8.131c4.821-3.826,1.452-7.753-1.312-10.835
	c13.229-3.836,18.181,8.121,23.508,0c1.313,4.056,3.132,7.614,7.854,8.121c2.287-4.394,1.401-8.031,2.615-10.834
	c-0.229,2.375,2.425,5.328,9.163,4.065c2.654,3.549,3.728,8.786,6.492,12.235c1.68-2.942,5.229,2.059,6.541-2.753
	c0.049,2.715,3.547,1.73,2.613,5.468c3.271,0.188,4.065-2.147,6.541-2.715c2.574,0.936-0.328,7.575,2.614,8.132
	c1.501,0,5.468,0.467,9.115,2.713c-0.984-8.041,4.114-2.613,6.541-8.13c1.313,1.818,3.509,2.714,5.238,4.065
	c1.59-1.958,4.999-2.059,6.541-4.065c-0.567,6.679,2.753,1.123,5.228,1.352c-2.842-3.638-1.769-6.163-1.303-10.885
	c-6.868,0-14.114-11.779-14.392-2.714c-7.477-4.434-15.33-8.499-16.969-19.016c7.574-3.181,5.188-9.671,13.041-10.885
	c2.246,0.846,2.147,4.106,3.928,5.418c-0.14-2.425,1.301-3.182,3.926-2.704c0.507-2.346-1.918-3.459,0-4.075
	c3.877,7.386,11.122,2.903,18.319,6.779c-1.173-4.722,4.244-2.286,5.18-1.352c0.794-2.804-1.592-8.927,1.311-9.483
	c3.688,3.916,1.631-4.066,6.541-2.764c6.642,8.837,0.051,3.737,10.468,2.764v5.417c9.154-0.378,14.483-0.795,18.27-4.065
	c1.918,1.163,5.05,1.073,3.928,5.418c3.458-3.132,8.17-3.271,11.778,0c0.606-1.591,1.402-3.081,2.613-4.065v4.065
	c6.403-3.132,9.017-1.958,14.346-5.418c-5.568-4.532-0.468-16.361,3.926-14.95c-4.254-2.385-6.551-6.829-9.166-10.895
	c2.854,0.239,4.167-1.123,3.928-4.065c-4.065,0.606-4.154-2.942-3.928-6.819c1.969,0,5.378,5.05,6.551,1.353
	c-3.32-5.557-15.704-1.77-19.582-6.77c5.279,3.271,4.394-0.935,6.49-4.115c0.19,5.278,9.067,1.502,9.156,6.819
	c3.002-0.885,7.901-2.704,10.477,0c-0.278-5.14-3.409-7.336-9.164-6.819c1.501-4.254-2.048-3.271-2.615-5.418
	c3.688-1.123,3.409,1.909,6.541,1.353c0.656-4.812-10.228-4.672-5.238-9.483c1.383,4.94,7.863,3.261,7.863,7.833
	c0.376-4.056,7.414-1.113,9.153-3.768c3.221,2.059,1.771,8.967,5.23,10.885c2.524-0.328,7.991-3.459,11.729-1.401
	c-1.959-7.803-4.722-14.154-5.229-17.663c2.704,3.181,5.506-1.491,7.844,2.713c3.18-2.197,2.991-6.919,7.852-4.065
	c1.024-5.606-6.262-2.525-5.229-8.131c4.434,0.188,7.614,5.795,10.468,0c2.237,1.729,3.499,4.434,3.877,8.131
	c-1.64-0.278-6.361-3.927-6.502-1.362c4.722,1.224-2.753,7.664,1.313,8.182c3.509-0.886,3.648-5.279,7.803-5.467
	c-1.631,1.868-3.966,2.713,0,4.114c0.09-5.795,2.992-3.23,5.238-1.401c0.646-1.59,1.401-3.081,2.615-4.065
	c1.303,3.221,7.525,1.212,9.154,4.065c-2.613,1.401-5.605,2.386-6.541,5.467c4.017-0.983,3.828,2.337,7.854,1.353
	c0.607-1.59,1.401-3.081,2.614-4.065c3.222,3.876,9.861,4.204,13.031,8.131c1.173-5.229-5.696-2.197-3.916-8.131
	c3.688-1.123,3.409,1.918,6.541,1.352c0.745-12.654,15.557-1.213,18.31-8.171c-2.981-2.804-8.121-3.32-10.468-6.779
	c1.641-0.557,2.675-1.77,2.625-4.105c-1.54-2.018-4.961-2.107-6.541-4.075c1.819,0.05,2.844-0.646,3.916-1.353
	c0.945,3.559,4.722,4.166,5.24,8.182c4.859-2.992,6.4-1.313,11.728-2.754c1.682,4.155,1.035,5.328-1.301,8.172
	c3.916,0.467,6.631,2.146,9.154,4.065c0.188-7.287-9.255-7.615-5.238-14.95c-1.631-1.869-6.164-1.869-7.803,0
	c-3.647-2.009,2.753-6.074-2.615-5.418c-5.426-0.656,1.73,4.154-5.237,2.703c2.902-6.868,1.729-5.229-2.615-9.532
	c3.36-2.843,8.697-3.639,13.081-5.418c4.633,2.854,7.436,5.746,11.73,5.418c0.984-4.622-4.811-2.236-5.229-5.418
	c-0.617-4.293,5.974-1.022,6.541-4.065c-6.592-0.467-13.878-8.131-23.509-9.532c-2.097,1.034,0.287,6.63-3.928,5.418
	c-0.09-0.467,1.124-2.704,1.313-2.704c-7.425-0.606-20.05-3.131-27.425-4.066c1.771,1.303,1.681,4.573,3.927,5.418
	c-0.984,2.714-6.502,7.664-9.165,4.116c0.984-2.197,6.4,0.277,5.238-4.116c-3.697,0.229-8.976-1.173-9.164,2.754
	c1.59,0.148,3.091,0.378,2.613,2.713c-3.737,1.541-8.727,6.68-11.77,1.353c2.615-1.958,4.582,1.401,6.541-2.703
	c0.277,1.022,0.051,2.663,1.313,2.703c-0.188-8.499-9.721,1.123-10.467-6.819c1.54,0.189,2.992,2.436,3.926,0
	c-4.304-1.312,1.491-2.664,1.303-4.065c-2.287-0.745-5.418-0.696-6.492-2.713c0.279-2.564-1.501-2.982-1.313-5.468
	c2.666,0.428,2.526,3.698,5.189,4.115c0.188-1.681,0.418-3.221,2.615-2.714c0.428-2.704-1.72-2.704-2.615-4.105
	c1.173-3.787,5.279-4.492,9.156-5.418c0.466,4.573-5.457,2.426-5.23,6.771c4.205-0.279,5.559,2.436,10.469,1.352
	c1.351-3.449,8.459-6.353,2.613-9.482c2.942,0.983,10.188-2.476,9.155,2.713c-0.277,2.009-3.17,1.263-5.229,1.353v5.417
	c6.679-1.073,5.605-3.777,11.729-6.77c0.328,2.564-1.45,2.992-1.311,5.418c5.605-0.835,5.328,4.442,10.467,4.114
	c1.829-1.729,0.566-6.68,3.926-6.829c0.796,3.748,10,2.804,5.239,8.182c4.104-0.229,4.344,3.599,9.115,2.713
	c1.163-4.343-3.37-2.802-3.887-5.427c1.639-3.638,2.059-6.49,6.49-4.105c-0.784-7.146-6.113-1.541-6.49-8.131
	c3.549,2.147,7.852,3.549,13.041,4.065c0.229-1.59-0.239-3.877,1.303-4.065c1.829,0.09,4.999-0.328,2.625-1.353
	c-4.444,0.09-9.117,0.418-10.479-2.763c3.043,0.428,1.452-3.926,3.926-4.066c7.716,5.468,14.256-2.057,23.509,1.362
	c1.631-4.394-4.205-1.034-2.564-5.428c3.033,0.418,5.368,1.641,7.793,2.715c-0.039-5.845-8.269-4.065-11.719-2.715
	c-0.806-4.344,2.425-4.204,0-6.818c-7.952-3.37-16.083-2.942-19.632-8.131c-4.434,1.262-7.665,3.787-14.343,2.714
	c-2.526,2.047,2.284,5.745-2.615,6.769c-3.371-0.139-6.213-0.745-7.854-2.703c2.992-1.591,3.928,0.745,5.229-4.065
	c-5.468-1.641-2.891-6.969-3.916-9.533c2.058,4.533,5.974-1.361,6.541,4.105c7.475-1.958,11.214-3.827,15.646-2.753
	c-1.491-2.008-5.416-1.59-5.178-5.417c4.621,2.097,0.746-4.632,3.875-4.065c6.541-1.362,7.805,2.753,11.781,4.065
	c-0.567-4.632,0.417-7.764,5.229-6.779c-1.354,1.779-1.313,5-2.615,6.779c4.434-2.336,10.605,2.147,14.343-2.714
	c-1.45-0.278-2.007-1.491-2.564-2.713C864.937,488.055,871.289,492.777,874.093,486.892z M768.297,337.361
	c0.656,1.123,1.354,2.197,1.313,4.065c-4.91,3.688-11.829,2.664-15.704-1.352C756.528,338.673,762.642,338.901,768.297,337.361z
	 M733.021,336.009c4.065,3.737,7.763,2.564,6.541-5.417c3.04,0.139,3.977,2.286,4.999-0.755c-1.78,5.427,4.961,6.173,4.116,11.59
	c-3.46-6.451-8.231,1.124-14.346,0C734.471,339.001,732.692,338.574,733.021,336.009z M747.364,277.551
	c3.508,3.32,2.157,6.312-1.303,8.181c0.188,2.475,4.435,0.795,5.229,2.704c-4.154,3.32-13.598,0.606-18.27,0
	C735.494,282.412,750.076,288.952,747.364,277.551z M691.202,247.65c-2.664-2.664-7.993-2.575-6.541-9.533
	c2.714,2.942,4.482,0.089,5.229-2.713c3.081,1.352,2.195,6.818,6.541,6.818C696.013,245.404,692.365,245.265,691.202,247.65z
	 M675.546,194.609c-2.804-0.607-2.525,1.968-2.615,4.115c-3.508-0.049-7.475,0.517-9.163-1.401c0.427-3.32,4.958-8.37,6.55-2.713
	c2.703-0.378-1.92-3.599,1.301-5.418C673.537,190.365,675.734,191.2,675.546,194.609z M657.236,99.471
	c-0.279-0.1-0.519-0.219-0.736-0.378C656.759,99.192,657.007,99.322,657.236,99.471z M661.152,161.995
	c0.188,3.409,2.485,4.254-1.303,5.417c0.975,3.549,6.213,2.624,6.541,6.829c3.549-0.845,3.221-5.705,7.843-5.427
	c0.428,2.714-0.277,4.255-2.615,4.065c0.886,2.943,6.83,0.05,5.24-4.065c4.015,6.968,9.532,4.772,15.645,1.362
	c1.313,4.016,4.722,5.974,6.552,9.483c-11.59,1.074-15.05,3.082-24.821,6.819c0.328-3.131-0.318-5.139-2.615-5.467
	c0.29-3.499,2.247,1.869,5.24,0c-4.205-3.32-1.223-3.966,3.875-2.703c-1.122-1.969-1.032-5.289-5.188-4.066
	c-1.541,0.229-1.124,2.476-1.313,4.066c-4.384-1.641-14.155-9.771-16.997-1.362c-1.313-0.885-1.363-3.131-3.928-2.704
	C657.046,168.396,656.013,164.798,661.152,161.995z M657.236,210.921c2.564,7.565-6.174,14.155-13.043,16.352
	c2.386-1.452,4.722-10.189-0.048-10.885C649.145,216.289,652.047,213.585,657.236,210.921z M227.429,302.033
	c-7.147,1.402-7.197,2.247-13.082,5.427c3.788-4.393,1.869-7.435-5.188-6.779c0.656-1.123,1.352-2.247,1.312-4.115
	c5.885-2.237,9.722,1.779,14.344-1.352c1.64,0.328,1.312,2.714,0,2.714C225.66,299.33,227.807,299.33,227.429,302.033z
	 M250.938,311.526c-7.664-2.246-8.41-3.836-16.958-4.065c1.024-1.223,1.401-3.091,1.302-5.427c7.246-1.59,7.574,4.771,13.042,1.362
	c-1.918,5.09-0.984,6.074,3.927,4.065C251.544,308.534,250.889,309.657,250.938,311.526z M321.494,246.288
	c-1.958,6.124-11.958,3.877-15.656,8.131c0.567,2.058,1.64-0.517,3.887,0v2.763c4.105,0.607,3.688-3.459,5.229-5.467
	c4.344,0.04,8.082,2.564,13.082,0c-0.368-2.813-3.499-2.714-5.229-4.065c3.876-3.698,12.047-10.05,18.27-6.829
	c1.123,0.288,1.252-0.507,1.312-1.352c3.221-2.665-1.402,5.556-3.887,5.467c0.656,0.517,1.918,6.59,2.575,2.714
	c1.441,5.795-8.509,5.835-13.042,6.769c4.722,1.541,0.377,0.845-1.312,5.467c-2.515-3.966-5.458-4.433-9.155-1.352
	c0.895,4.065,2.803-1.313,5.238,0c-2.764,10.229-13.837,0.278-19.583,2.713c-3.787-5.517-3.31-9.254-3.926-16.312
	C309.864,238.764,312.15,248.764,321.494,246.288z M324.108,274.837c-0.467,1.779-2.286,2.157-2.614,4.065
	c-6.352,1.64-4.394-5.417-9.155-5.417C314.396,266.338,321.544,271.288,324.108,274.837z M307.101,341.426
	c0.188,2.476-1.591,2.903-1.263,5.467c4.821,4.066,6.073,3.738,10.428,0v4.066c2.703-0.378,2.614-3.648,3.926-5.417
	c3.827,1.023,11.909,7.335,6.531,9.483c0.566,2.057,1.689-0.517,3.926,0c-0.606,6.451-0.278,10.795-10.458,9.532
	c2.048,1.958,4.523,3.41,5.229,6.78c5.188-0.756,3.926-0.756,9.155,0c-2.236,1.769-0.05,8.131-3.926,8.17
	c-5.417-5.089-15.746-10.695-11.77-14.95c-2.713-4.294-5.328-0.795-9.155-2.713c-0.377-3.171,0.229-5.229,1.302-6.819
	c-1.451-3.459-10.089,0.557-11.729-2.714c-0.984-4.155,3.598-2.614,2.624-6.769c-4.821,0.517-2.902-3.131-7.853-1.352
	c0.695-4.821-4.632-3.37-3.927-8.181C296.216,335.681,299.953,339.647,307.101,341.426z M313.641,402.639
	c-8.36,0.239-4.861-8.32-6.541-12.247c2.336,1.223,3.836,3.28,6.541,4.065C312.2,398.762,313.552,397.549,313.641,402.639z
	 M312.339,369.975c-0.845-4.065-2.763,1.312-5.238,0c0.567-3.271-2.386-2.942-1.263-6.77c10.517-1.73,13.648,12.058,3.887,13.599
	C310.281,374.18,313.462,374.319,312.339,369.975z M279.675,321.059c2.574,4.483,6.213,0.695,2.614-2.714
	c1.123-3.976,4.205,0.795,6.541,0c-2.803,2.803-0.049,4.622,2.614,5.417C287.667,325.304,278.741,329.001,279.675,321.059z
	 M279.675,352.311c5.089,0.706,5.188-7.803,9.155-4.065c-0.696,1.073-1.352,2.197-1.302,4.065c-3.23-0.189-6.361-0.229-6.55,2.714
	c3.976,3.082,11.173,0.656,13.091,2.753c-0.845,1.362-2.992,1.402-2.625,4.065c3.738,0.1,5.616-0.507,11.779,1.362
	c1.591,3.737,3.788,6.909,3.877,12.236c-2.992-0.934-3.459-4.533-6.491-5.467c-5.706,0.566,1.64,12.107,3.926,8.181
	c3.032,0-0.517,3.688-2.614,2.704c2.704,2.714,5.318,4.543,9.105,2.714v5.467c-7.525-5.417-7.942,2.714-14.344,0
	c6.68-4.016-6.302-1.958-7.853-5.467c1.452-5.606,2.058-5-3.916-4.066c0.557-2.614,5.089-1.073,3.916-5.417
	c-3.27-2.942-5.328-7.147-7.853-10.885c-1.541,1.541-4.573,1.541-7.803,1.352c1.173-3.976,1.173-4.154,0-8.181
	c3.131,4.493,5.188,3.887,7.803,6.829c1.451-0.328,0.895-2.713,2.624-2.713C281.823,356.427,278.363,360.82,279.675,352.311z
	 M274.486,455.63c3.549-0.984,2.615,2.704,5.189,2.704c-0.845-5.04-4.294-8.877,0-12.187c1.869,1.63,2.992,5.179,1.302,6.77
	c5.567-1.213,7.803-2.803,9.165-5.418c3.032-0.417,1.451,3.927,3.927,4.066c-6.918,2.753-6.968,12.704-14.394,14.95
	C285.52,458.055,273.781,462.548,274.486,455.63z M292.757,403.99c-0.418,4.255-7.614,5.755,0,4.076
	c-0.935,1.252-2.376,2.048-3.927,2.704c0.239,1.591,2.386,1.173,3.927,1.352c0.189,2.436-1.59,2.902-1.313,5.467
	c-4.294,0.188-6.252-5.557-3.917-8.171c-5.328,1.491-8.886,0.089-10.467-5.428c4.155,0.656,2.992-4.205,7.853-2.704
	c-0.895,2.664-3.459,3.599-6.551,4.065C280.332,407.271,288.97,404.646,292.757,403.99z M256.167,338.723
	c-2.376-5.755,6.868-6.312,3.926-8.131c2.992-0.289,13.876-3.926,16.968,1.352C272.2,338.901,266.167,339.329,256.167,338.723z
	 M270.56,380.859c1.074-5.179-6.312-1.581-5.229-6.769c3.32,1.212,7.386,2.197,9.155-1.352c3.837,1.958,1.124,3.032,2.575,8.121
	c2.564,1.452,7.753-1.212,7.853,5.477c-5.845,1.114-11.74-5.706-18.27,1.352c-0.189-2.575-0.895-4.583-2.625-5.467
	C264.159,378.762,268.88,378.991,270.56,380.859z M235.282,477.399c6.59-0.368,11.869-1.958,18.27-5.467
	c4.583,0.378-3.271,5.1,1.313,5.467c-0.567,0.795-5.606,2.674-6.541-1.352c-4.483,1.64-5.378,7.058-13.042,5.417V477.399z
	 M207.857,471.932c0.885,4.215,0.885,2.625,0,6.829c5.746-0.188,5.328-1.869,9.115,0c-0.517,2.614-5.05,1.074-3.887,5.418
	c2.197,2.197,7.475,1.262,6.501,6.819c3.082,0,3.876-2.336,7.843-1.352c-12.008,7.664-17.286-5.368-24.811-10.885
	C203.374,475.441,203.742,471.753,207.857,471.932z M194.775,539.924c-0.188-1.163,7.933-5.229,11.77-6.771
	c-0.746,1.959-2.058,3.311-3.926,4.065c0.428,1.819,3.271,1.113,5.238,1.353c0.189,4.255-3.37,4.672-6.541,5.418
	C204.676,540.479,199.209,539.268,194.775,539.924z M215.66,553.521c-1.779,3.509-7.992,0.278-10.427,0
	c-1.074,0.278-1.302,1.353-2.614,1.353c2.713,4.164,7.575,3.041,10.467,4.065c-2.058,7.902-8.876-4.673-10.467,2.764
	c-2.147-2.019,1.59-7.297-3.917-8.182c4.483-1.491,6.441-4.722,6.531-6.779c0.288-1.958,3.887-0.507,3.926-2.753
	c3.788,1.212,1.451,2.058,1.312,5.467h2.614c1.641-0.328,1.68-4.065,0-4.115c3.648-5.885,6.312,7.764,10.417,1.401
	C229.915,552.26,207.479,548.432,215.66,553.521z M248.324,598.382c1.352-9.443-9.304,1.77-7.803-6.779
	c1.074-0.278,1.213,0.517,1.302,1.361c2.714-0.427-1.958-3.697,2.625-4.114c3.966,0.844,3.688,6.123,10.417,4.114
	C256.127,598.332,251.077,597.169,248.324,598.382z M249.626,582.069c0.289-1.123,1.312-1.351,1.312-2.703h-3.926
	c3.27-2.058,7.942-2.624,13.081-2.713c0.378,2.196-1.212,2.335-1.312,4.065c6.739,0,5.984-0.706,10.477-4.065
	C265.799,587.069,254.904,580.479,249.626,582.069z M274.486,575.301c2.425-6.173-4.722-2.386-5.229-5.467
	c-1.173,6.073-8.32,5.835-15.706,5.467c-0.238-1.869,6.64-2.764,2.615-4.115c6.779-1.352,15.605-9.155,26.123-10.845
	C279.347,564.974,280.521,573.899,274.486,575.301z M294.069,567.119c-3.131,0.567-2.853-2.474-6.541-1.351
	c2.426-2.387-0.328-4.206-2.614-5.428c0.318-1.491,2.614-0.935,2.614-2.754c-3.737-5.606-18.548,0.278-20.884-6.778
	c-5.289,2.663-8.042,7.952-14.394,9.532c-9.254-5.646-22.853,0.188-30.05,2.713c-4.016-2.564,4.254-3.599,2.615-8.18
	c8.458,3.041,8.13-3.172,11.779-8.132c7.097,2.714,10.695-0.974,20.884-1.401c2.197,2.714-0.089,1.729,0,5.468
	c5.378-1.402,8.082,1.5,10.467-4.066c1.779,0.428,1.073,3.37,1.312,5.427c1.212-1.451,4.811-0.427,3.917-4.065
	c3.509-0.934,2.525,2.804,3.887,4.065c1.77-1.36,4.9-1.312,5.229-4.065c6.034,2.286,12.246,2.059,19.632,5.418
	C298.035,558.521,292.806,559.924,294.069,567.119z M312.339,531.792h-5.238c5.417-5.983-1.541-6.729-1.263-13.599
	c-7.564,2.476-19.433-2.475-26.163-9.532c-0.377-2.942,3.32-1.68,3.876-3.638c-0.974,6.441,9.394,9.205,15.746,7.704
	c1.918-0.557-0.507-1.729,0-4.065c2.713-1.59,4.91,0.656,6.541-4.065c3.459,2.614,0.189,12.058,5.189,9.493
	c3.32,2.236-4.205,4.572-2.614,9.522c2.058-2.843,3.32-6.541,7.853-6.819C312.011,521.425,308.74,525.719,312.339,531.792z
	 M304.536,447.499c1.074-3.876-1.869-3.548-1.312-6.819c3.271,0.229,4.065-2.057,5.189-4.065c4.761,0.935-0.239,5.417,1.312,10.884
	c1.68-4.165,3.399-4.771,6.541-1.352C312.896,450.063,310.053,447.449,304.536,447.499z M318.879,403.99
	c2.893-2.892-1.69-4.016-1.312-8.17c7.664,4.482,4.771-4.672,13.081-5.428c0.567,2.575,2.813,3.419,2.624,6.779
	c-1.968,0.706-3.32,2.008-5.238,2.713c1.213,2.942,9.493,1.869,7.853-2.713c3.688,1.451,5.417,1.451,9.115,0
	c1.164,4.394-4.254,1.918-5.239,4.115c-0.188,3.827,8.549-1.68,6.541,4.065c-7.475-0.1-10.984,3.966-14.344,8.131
	c-1.491-0.239-0.745-1.362,0-1.362c0.05-2.286-0.984-3.499-2.614-4.056c0.328-2.813,5.746-0.378,6.541-2.714
	C330.182,405.303,325.092,402.967,318.879,403.99z M324.108,442.032c-0.467-2.575,6.541-6.213,0-6.779
	c0.845-4.95,6.124,3.131,6.541-1.352c2.485,2.385,4.026,5.745,6.551,8.131C334.813,449.507,328.223,444.04,324.108,442.032z
	 M328.035,458.334c3.509-4.483,11.352,1.173,14.354-5.417c1.213,0.795,2.008,3.787,2.614,1.362
	C349.396,461.843,331.772,462.26,328.035,458.334z M333.273,584.784c4.254-1.779,13.181-2.525,15.646,1.351
	C346.821,587.815,333.313,589.784,333.273,584.784z M351.543,350.959c-6.64,0.557-7.058-5.329-7.853-10.885
	c5.467,0.189,7.147-2.664,5.229-6.779c3.459-0.417,1.033,5.278,5.238,4.065C349.108,342.689,349.714,342.55,351.543,350.959z
	 M253.552,665.012c-1.869-5.279-10.417-3.639-11.729-9.533c6.073,0.378,1.829-1.591,3.876-5.417
	c3.608,3.221,6.641,0.049,10.468,4.065c-0.14,2.564-4.295,0.935-3.917,4.065c0.606,2.008,1.68-0.517,3.917,0
	C257.29,662.536,254.109,662.397,253.552,665.012z M314.953,693.569c5.089-4.115,9.434-3.648,13.082-10.895
	c0.984,6.73,6.819,0.1,7.853,6.779C327.895,690.011,324.297,699.872,314.953,693.569z M716.012,307.46
	c6.312,2.008,1.214-7.813,6.541-6.779c-2.425,2.574,0.796,2.425,0,6.779c2.246,0.04,3.37-1.034,3.928-2.713
	c2.801,2.992-4.065,7.475-7.854,8.131C720.268,308.485,714.422,311.854,716.012,307.46z M692.503,336.009
	c7.814-0.428,7.993,7.097,15.655,6.819c-4.571,6.212-12.753-0.656-19.571,2.714c0.796-1.213,1.58-2.436,0-2.714
	C689.521,338.395,695.963,341.844,692.503,336.009z M683.349,312.878c-1.491,5.556,1.641,5.139,5.238,10.884
	c-7.901-0.835-11.689-6.958-16.969,0c0.567-1.212,1.124-2.425,2.615-2.704c-0.605-1.69-1.669-2.813-3.916-2.714
	C675.457,317.361,675.823,311.387,683.349,312.878z M667.702,277.551c1.303,2.246,5.557,1.5,7.844,2.713v5.467
	c-11.68,0.189-11.73-3.887-14.394-13.599C664.701,266.854,671.946,272.361,667.702,277.551z M655.924,342.828
	c-0.188,7.713-12.524,2.942-16.969,2.714c4.862,2.247-2.942,6.58-6.54,8.131c0.895-4.165,0.895-2.624,0-6.779
	c4.999-0.746,10-8.598,11.778-8.171C646.43,336.476,650.785,343.574,655.924,342.828z M637.652,333.295
	c-7.901,9.304-15.048,1.173-19.632,4.065c-0.605-4.254,3.559-3.598,3.928-6.769C626.998,335.631,628.965,333.156,637.652,333.295z
	 M612.843,284.33c-3.093,3.876-7.853-0.328-5.238,6.819c-6.212,1.213-12.386,1.919-11.78,6.78h-10.417
	c0.606-6.124,5.935-7.386,9.116-10.845c-0.19-1.59-2.386-1.163-3.928-1.352c2.714-8.559,11.451-10.795,14.395-19.065
	c1.45-0.05,3.549,0.974,3.787,0.974c-0.14-0.179-0.519-0.458-1.173-0.974c2.802-1.401,6.59,1.441,6.539,5.467
	c2.198,0.468,2.437-1.073,2.576-2.763c1.074,0.755,2.146,1.452,3.926,1.412c-1.59,5.089-3.737,9.672-10.428,9.483
	C611.063,281.666,613.21,281.666,612.843,284.33z M607.604,236.756c0.935-2.147,6.401,0.328,5.238-4.065
	c5.089-1.113,8.688,5.377,10.418-1.353c4.065,1.73-3.271,7.615,2.613,8.132c-0.695,3.827-6.263,2.524-9.154,4.115
	c3.359-3.419-0.846-4.861-2.576-6.829c-2.285,3.559-5.276,6.312-9.153,8.181C601.81,242.134,612.235,242.083,607.604,236.756z
	 M618.021,228.625c-4.384-4.711,10.011-1.352,10.469-5.467c1.59-0.417,4.482,3.927,1.311,4.116c0.229,1.59,2.386,1.123,3.928,1.352
	C629.522,237.65,622.653,223.257,618.021,228.625z M628.489,142.979c2.523,0.507,0.147,6.213,5.238,4.065
	c-1.78,5.835-10.657,4.294-14.395,8.181c-2.893-0.239,1.73-3.459,0-6.829C622.694,146.906,626.479,145.872,628.489,142.979z
	 M582.793,132.085c10.467-1.441,14.672,7.953,13.031-5.417c2.664,2.436,0.379,5,5.24,2.714c-5.002,7.992,0.934,11.451,6.54,13.598
	c3.13-1.68,4.582-10.427,7.803-4.115c1.73,0.656,0.1-6.213-1.264-6.779c0.379-1.869,3.271-1.113,5.189-1.352
	c0.517,3.827-2.425,9.443,1.313,5.417c1.959,8.37-5.327,18.887-6.502,28.559c-4.811-1.919-7.007,1.958-9.153-2.714
	c0.14-4.394,5.935-2.902,3.925-9.532c-2.146,2.335-7.334,1.451-7.851,5.467c-5.559-6.074-13.222-3.459-23.5-6.819
	c0.188-2.525,0.835-4.533,2.614-5.427c-1.868,1.173-4.442-7.336-6.551-1.352C568.399,136.996,589.104,140.922,582.793,132.085z
	 M581.49,281.616h-6.55c-1.253-5.05,2.525-12.664,9.165-13.598C584.195,273.575,579.802,274.469,581.49,281.616z M567.098,282.968
	c-1.551-2.008-3.787-3.31-3.927-6.769c3.32-2.475,7.286-5.1,11.77-2.713C572.744,279.936,568.956,277.928,567.098,282.968z
	 M568.399,246.288c-0.517-4.671-3.499-1.729-1.302-6.818c1.352,4.016,7.942,2.614,7.843,8.181c-4.812,4.065-15.039,9.105-18.311,0
	C559.434,245.821,563.539,250.493,568.399,246.288z M560.547,277.551c-1.77-6.163-0.696-7.992-3.917-13.599
	C563.967,267.739,573.728,263.257,560.547,277.551z M555.317,470.58c2.854,0.746,8.46,3.32,9.156-1.352
	c1.641,0.606,2.713,1.729,2.624,4.105c4.065,0.149,3.738-4.294,9.154-2.753c-0.049-2.664-3.598-1.73-2.624-5.417
	c1.501,0.229,2.347-0.278,2.624-1.361c4.345,4.393,5.607-0.746,10.418-2.704c-0.417,3.648-5.04,14.622-14.343,13.598
	c5.088,3.737,9.343,2.286,13.08,5.417c-5.229,3.688-19.344,5.238-24.86,4.066c-0.884-4.533,2.713-2.197,3.927-1.353
	c0.238-2.942-1.073-4.304-3.927-4.065c0.418-1.869,3.28-1.123,5.239-1.362C562.426,473.9,553.639,481.146,555.317,470.58z
	 M571.015,493.711c-5.04-3.598-5.13,0.1-9.156-1.352c2.426-2.625,2.386-1.074,1.313-5.467c4.106,0.696,4.623-2.436,9.156-1.362
	C573.261,489.695,570.079,489.556,571.015,493.711z M531.82,229.986c2.425,3.45,3.358,5.935,1.301,10.835
	c-2.475-0.557-5.605-0.467-5.229-4.065c1.87,0.139,3.737,0.238,3.928-1.352c-0.149-2.993-5.518-0.567-7.863-1.353
	c1.412-11.033,6.879-4.304,11.779-8.181C536.531,229.42,535.229,230.781,531.82,229.986z M522.704,171.528
	c2.614-1.779,7.843-0.885,7.804-5.467c7.058,0.935,1.729,10.229,3.926,13.599c-5.655-2.008-8.271,0.695-13.041-2.714
	C522.377,175.732,522.794,173.864,522.704,171.528z M512.236,250.354c3.411-1.819,2.476-6.024,1.313-9.533
	c5.925,5.238,6.909,5.795,15.646,4.115c0.188,8.042,7.942,8.877,9.155,12.246c-3.221,0.179-6.352,0.229-6.53-2.763
	c-4.116,2.942-6.362,9.623-11.74,4.116c-0.179-2.436,1.6-2.903,1.313-5.467c-4.065-0.984-1.631,4.722-6.541,2.753
	c-1.968,0.566,0.517,1.729,0,4.065h-9.155c4.205-7.426-6.64-1.541-7.853,1.362c-2.107-3.648,7.992-6.173,7.853-12.247
	C509.812,250.543,509.146,248.625,512.236,250.354z M525.269,493.711c-3.031-3.32-2.426,2.008-6.491,1.352
	c-1.64-10.278,9.583-7.236,9.115-16.302c2.754,1.68,3.6,5.328,6.541,6.77C531.63,486.753,523.36,484.277,525.269,493.711z
	 M516.153,352.311c-4.761-1.352-9.433-2.843-14.383-4.065c0.089-4.9,8.548-1.074,10.466-4.056c-2.385-3.926-2.902-5.427,0-9.533
	c3.689-1.124,3.361,1.909,6.541,1.352c-3.926,10.417,9.156-0.567,10.418,8.181c-3.877,1.441-7.009,0.974-11.73-1.362
	c-1.072,0.239-1.312,1.362-2.613,1.362C513.917,348.295,516.153,349.14,516.153,352.311z M490.04,171.528
	c-5.277,6.491-0.656,11.869-3.926,16.312C480.647,184.749,483.64,170.921,490.04,171.528z M483.499,189.191
	c3.41,0.517,4.951,1.68,9.156,4.065c3.977-1.818,2.852-10.844,11.729-10.895c0.606,1.223,1.173,2.436,2.614,2.764
	c-2.804,13.827-17.654,15.139-23.5,25.795C484.107,207.044,481.304,198.953,483.499,189.191z M453.451,232.69
	c3.459,0,7.663-0.746,7.803,2.714c4.811-1.968,4.254-6.541,5.238-9.533c3.827,2.386,10.606,1.68,9.155,9.533
	c-4.065,0.139-6.263-1.641-9.155-2.714c-3.648,1.361,0.368,5.745,0,8.131h6.541c-1.591,3.976-7.574,8.459-11.779,5.467
	c-0.606-2.892,1.918-2.614,3.926-2.703c-4.482-5.1-8.081-2.813-14.344-1.362C449.156,236.199,450.886,236.617,453.451,232.69z
	 M440.369,306.099c6.819,3.042,18.549,6.074,17.008,13.599c0.984,3.082,2.336-1.869,4.115-1.213
	c-3.32-5.049,4.395-12.196-2.803-9.672c-1.362-4.583,4.064-2.097,6.49-2.714c0.984,3.698-2.574,2.764-2.614,5.427
	c5.09,5.229,6.114-5.377,11.771-4.065c-0.041,1.302-1.592,1.074-2.615,1.352c-0.557,2.197,4.861,4.583,5.238,1.352
	c7.565,8.836-3.509,17.524-2.623,24.493c-2.615-2.296-1.631,0.139-5.229,0c6.641-9.065-7.107-2.524-9.115-9.533
	c-5.935,4.384-11.72,0.417-19.622,2.704C437.943,322.967,435.509,310.403,440.369,306.099z M420.787,299.33
	c3.599,2.097,5.845-3.559,2.625-4.116c1.302-3.837,5.506,0.377,7.802,0c-4.532,9.761,7.894,8.976,1.302,24.483
	c2.436-0.189,0.846-4.622,2.615-5.418c2.952,0.557,0.566,6.68,1.313,9.483c-4.533-4.533-18.877-12.664-11.729-20.368
	C425.23,300.125,418.739,304.141,420.787,299.33z M412.943,208.207c4.105,0.279,6.253,2.525,6.541,6.819
	C413.918,220.175,407.845,213.813,412.943,208.207z M420.787,311.526c-3.688-0.238-3.031,5.14-6.541,1.353
	c3.092-4.622,1.402-3.827-2.614-6.78c0.238-1.59,2.385-1.163,3.926-1.352c0.467-4.583-5.517-2.425-5.239-6.819
	C417.049,299.091,418.689,305.592,420.787,311.526z M410.32,378.156c3.509-3.271,6.968,1.819,10.467,2.704
	c-2.236,1.779-7.375-0.835-11.769,1.362c-1.034-2.992-2.714-5.278-2.615-9.483h3.917
	C408.173,375.392,410.459,374.468,410.32,378.156z M380.281,543.989c-8.509-12.426,10.467-12.247,7.853-21.73
	c2.187,3.41,2.008,5.05,3.917,0c5.746,1.541-1.451,13.738-5.229,9.533c-2.296,6.868,5.656,3.132,5.229,8.132
	c-5.606,0.845-5.328-4.434-10.467-4.065C376.871,537.07,380.787,539.874,380.281,543.989z M376.354,386.336
	c-0.278-6.361-3.181-8.976,3.927-10.895c-2.058,7.853,6.352,16.262,13.082,12.247c-0.1-4.483-5.606-3.271-5.229-8.181
	c3.827,0.706,8.877,0.468,6.53,5.428c6.173-2.386,5.945,1.819,13.042,1.401c2.147,5.557,2.564,6.392,1.313,12.187
	c-3.976,1.779-11.958-0.646-11.73,5.467c-10.884,2.664-18.787-1.023-19.622-12.236c2.236,0.517,2.475-1.074,2.614-2.714
	c1.729,0.467,2.057,2.386,3.926,2.714C383.501,387.967,379.157,387.917,376.354,386.336z M369.813,316.983
	c4.812-0.278,9.483-5.507,14.394-1.352c-1.124,1.074-0.795,3.697-2.624,4.065c-0.179,2.614,7.296-3.32,5.238,4.065
	c5.278-0.884,8.221-9.761,14.394-5.417c-7.058,7.614-17.247,11.958-23.548,20.377c0.934-4.165-1.313-4.96-1.313-8.131
	c3.082-0.478,5.656-1.402,6.541-4.116c-2.614-3.369-4.811,4.016-9.155,0C377.288,320.592,369.386,323.156,369.813,316.983z
	 M382.895,304.747c0.05-4.065,3.41-4.622,3.927-8.181c4.344,2.247,7.385-1.302,13.032-1.352c0.984,3.966,3.181,6.68,5.238,9.533
	c-2.475,4.622-4.582-2.336-7.803-1.352c-2.713,3.966-6.173,7.147-11.779,8.131C386.354,308.206,388.133,304.558,382.895,304.747z
	 M393.362,549.456c1.68,2.436,0.606,5,1.301,10.885c1.223-2.804,4.215-3.778,6.551-5.467c3.131-0.508-0.746,6.222,3.876,4.065
	c-3.36,4.164-7.386,7.106-9.115,9.532c-4.712-4.205-8.926-8.827-11.769-14.95C391.076,553.711,392.149,555.718,393.362,549.456z
	 M397.288,495.063c7.008-3.082-0.795-1.212,0-8.171h-10.467c0.189-1.541-0.279-2.386-1.313-2.713
	c1.958-3.32,5.378-3.032,2.625-8.131c1.958,2.614,8.31,5,6.53-2.714c1.83,0.1,3.698,0.189,3.927-1.402
	c6.64,6.263,14.166,11.551,22.197,16.362c-2.426,4.255-11.302,1.819-11.769,8.131C406.871,494.128,401.354,495.341,397.288,495.063z
	 M407.706,291.148c-0.377,4.583,1.779,11.779-3.926,10.885c0.706-7.704-2.664-7.196-6.491-12.236
	C398.124,284.936,405.37,289.379,407.706,291.148z M382.895,197.323c3.032,0.417,5.656,2.942,6.541-1.362
	c1.869,3.042,6.63,3.091,5.228,9.533c-2.375-0.179-2.753,1.69-5.228,1.362c1.869-2.386,1.213-3.091-2.614-2.714
	c-2.753,0.378,1.869,3.648-1.313,5.418c-3.131,0.566,0.706-6.163-3.926-4.066C384.346,202.184,383.461,202.601,382.895,197.323z
	 M381.583,277.551c2.057-0.089,5,0.656,5.238-1.352c2.286,1.212,4.533,2.524,3.926,6.769c-3.28,0.845-4.394,1.124-9.165,2.764
	c0.188-5.795-2.048-0.05-2.614,1.352C374.903,284.052,381.543,280.771,381.583,277.551z M376.354,300.682
	c6.024,2.197-1.123,4.533,0,9.483c-3.459,1.59-7.664-2.615-7.853,0C365.648,306.666,375.509,304.797,376.354,300.682z
	 M367.239,262.601c1.173,5-6.908,2.475-7.853,1.352c0.428-5.278,6.918-4.205,3.926-9.533c3.698,1.124,3.37-1.918,6.5-1.352
	C367.944,256.994,361.632,262.322,367.239,262.601z M365.937,195.961c2.476,2.574,2.336-0.785,6.491,0
	c-0.188,1.591,0.328,2.436,1.312,2.763c0.646,4.255-1.829,5.278-2.625,8.131c0.239,1.59,2.386,1.163,3.927,1.352
	c-2.386,4.205,1.223,6.124-1.302,9.533c-4.025-3.927-9.721-6.213-13.042-10.885C367.667,207.74,361.166,199.52,365.937,195.961z
	 M352.845,181.011c-0.109-0.169-0.208-0.338-0.308-0.526C352.667,180.623,352.776,180.802,352.845,181.011z M345.002,208.207
	c0.229-1.59-0.278-2.425-1.312-2.713c-3.032-3.081,3.459,1.124,6.541,0c-0.557-3.917-5.606-3.221-6.541-6.77
	c-2.704,0.746-3.698,3.36-7.803,2.704c-1.212-5.089-4.91-7.615-6.541-12.237c5.368,3.41,4.344-3.37,9.155-4.065
	c-0.189-4.344-4.86-4.065-5.229-8.181c5.139,0.139,3.966,5.934,9.115,2.714c2.753,4.294-1.172,7.614,1.302,10.884
	c2.763-1.212,4.016-4.016,3.927-8.181c5.517,3.459,6.262-2.475,11.769-2.703c3.419,7.524-2.187,10.984,3.926,17.664
	c-4.95,2.008-2.524-3.698-6.541-2.713c-6.541,4.671,3.787,5.328,2.614,12.246C351.732,208.953,352.011,205.593,345.002,208.207z
	 M362.01,685.389c-6.262,0.885-11.451,2.476-13.091-4.065c6.729,1.591,5.238-3.181,3.926-6.819
	c5.517,2.704,6.034,3.081,10.467,5.458C362.289,681.184,361.911,683.003,362.01,685.389z M376.354,637.814
	c1.541-2.008,1.541-3.409,0-5.467c-5.239,0.984-0.049,6.401-2.614,8.181c-4.493,0.606-7.296-0.517-10.427-1.352
	c3.181-6.034,7.853-5.14,10.427-9.533c5.368,1.213,8.171,5.14,14.394,5.468C385.28,640.2,380.509,635.111,376.354,637.814z
	 M386.821,624.217c-6.491,0.238-13.32,7.385-18.32,1.361c-4.155,0.656-4.583,5.189-9.115,5.418
	c-4.622-6.123,5.238-6.591,9.115-8.132c-5.984,0.328-3.221-8.409-10.417-6.818c8.648-6.869,21.163,2.753,31.352-2.714
	c0.428,2.764-0.278,4.255-2.614,4.065c0.935,1.313,2.386,2.107,3.926,2.764c-1.173-7.247,5.467,0,10.467-4.115
	c3.548,1.262-3.509,2.525-1.362,6.818c2.803,2.476,3.836,4.672,7.853,2.714C403.64,632.914,394.535,623.938,386.821,624.217z
	 M409.018,701.69c-0.706-1.958,1.541-7.008-1.313-6.769c9.205-4.205,15.139,5.139,19.623,0
	C428.729,699.644,415.697,700.896,409.018,701.69z M422.1,650.062c-2.715-0.378-2.615-3.648-3.927-5.468
	c-1.213,1.451-4.812,0.418-3.927,4.115c-2.375-2.436-5.507-5.756-1.303-8.181c-1.5-5.556-5.615,1.074-10.477,0
	c4.404-5.795,17.854-7.058,23.559,0c-0.428,3.171-3.32,6.352,2.614,5.418C428.083,649.027,421.443,645.757,422.1,650.062z
	 M432.516,650.062c-2.574-3.37-8.598-13.32-3.876-12.247c0-4.572-6.073-2.753-7.853-5.467c-0.646-4.244,4.025-3.032,2.625-8.131
	c4.154,0.188,5.744,3.092,5.228,8.131c1.024-0.696,2.107-1.402,3.876-1.352c-2.425,2.614,0.797,2.475,0,6.818
	c3.788-1.918,6.641,3.698,7.854,0C445.419,641.791,431.721,648.003,432.516,650.062z M437.755,459.745
	c-4.442-1.451,3.638-0.427,1.302-4.115c-4.105-0.656-2.941,4.205-7.843,2.704c1.63-8.032,10.04-1.77,13.081-6.77
	c1.771,0.884,2.426,2.893,2.615,5.417C442.148,456.097,439.951,457.916,437.755,459.745z M428.64,376.804
	c1.213-4.632,3.222-8.42,9.115-8.181c0.368,5.885,3.599,2.614,9.155,5.467C442.188,376.376,435.737,376.943,428.64,376.804z
	 M457.377,613.332c1.869,2.107,5.229,2.714,3.877,8.181c-1.023-0.745-2.107-1.451-3.877-1.352c5-7.485-8.042-0.706-6.541-8.182
	c5.238,2.476,9.434-1.918,14.344,1.353C463.878,617.169,459.663,612.964,457.377,613.332z M479.574,704.404
	c-5.885-2.564-4.91-9.482-11.779-8.131c1.262-5.935,7.296-6.958,7.853-13.599c1.919,2.524,6.778,2.058,6.54,6.779
	c-2.247-2.436-5.139,0.418-5.229,4.115c1.124,3.917,1.959,1.491,5.229,1.353C481.96,698.748,483.312,704.215,479.574,704.404z
	 M482.188,213.674c3.459-0.049,7.664,0.746,7.853-2.753c2.009,0.606,1.124,4.294,5.189,2.753c-1.779-2.197-1.073-7.008-3.877-8.181
	c0.14-2.565,4.295-0.935,3.877-4.065c2.286,3.509,6.302,5.238,6.541,10.895c-3.081,1.729-2.436-0.189-6.541,1.352
	c-1.173,4.583-6.123,11.173,3.926,9.483c2.009,5.755-6.738,0.239-6.5,4.116c-1.073-3.131-8.688-6.262-9.156-5.467
	C480.597,221.667,482.934,216.061,482.188,213.674z M487.427,520.908c-6.69-4.066,0.466-12.853,1.302-17.665
	C493.828,504.695,486.82,515.252,487.427,520.908z M487.427,318.345c-6.084,0.845-3.319-7.425-3.928-12.247
	c1.491,0.239,2.337-0.278,2.615-1.352c6.49,0,4.305,9.115,13.041,6.779c0.417,3.599-2.713,3.499-5.238,4.106
	c0.379-2.197-1.212-2.336-1.262-4.106C488.688,311.477,491.353,318.395,487.427,318.345z M493.917,597.02
	c1.262,0.846,4.861,3.182,3.927-1.351c6.402-0.558,2.098,6.173,1.312,9.532c4.017,0.984,2.525-3.737,6.541-2.754
	c-2.853,4.294-5.417,8.877-11.779,9.532C489.484,606.324,496.532,601.186,493.917,597.02z M505.696,621.513
	c-3.419,0.983-4.016,4.9-7.853,5.417c-0.565-3.737,6.074-7.613-1.312-6.769c1.262-3.23,2.295-6.69,7.853-5.478
	C503.311,618.521,506.253,618.243,505.696,621.513z M509.624,531.792c-3.928-1.769-0.608-3.081-7.854-1.401
	c-1.034-4.672,1.451-5.696,2.614-8.132c-2.614,1.353-5.558,2.337-6.541,5.428c-2.296-1.222-2.147-5.01-5.188-5.428
	c1.541-5.188,1.68-11.818,3.877-16.301c7.007,2.893,5.516-4.771,10.467-9.533c0.895-2.574,2.058,1.491,0,1.352
	C511.721,507.827,509.573,526.097,509.624,531.792z M520.08,675.896c-0.646,4.254,3.977,3.041,2.624,8.131
	c-3.787-0.607-5.984-2.844-6.551-6.77c4.215-4.395,0.148-6.313,1.312-9.533c-0.883-4.065-2.802,1.313-5.229,0
	c-0.794-8.041,11.024-3.041,9.156-12.246c2.196-0.039,3.358,1.034,3.876,2.714c-0.417,3.647-3.409,4.582-6.491,5.467
	c1.87,2.992,6.958,2.665,7.804,6.779C526.771,674.733,523.261,675.111,520.08,675.896z M520.08,535.858
	c-1.53-11.074-2.564-25.329-2.615-34.016c8.411,0.556,9.771-1.452,13.043-8.131C532.098,504.974,528.211,524.456,520.08,535.858z
	 M529.195,688.093c0.517-3.55,4.205-3.777,2.625-9.483c-0.567-2.057-1.691,0.518-3.928,0c-0.377-5.885-0.099-10.983,5.229-10.885
	c-4.671,3.688-3.358,7.564,1.313,10.885c4.255-4.532,6.681,0.886,14.394,0C547.704,686.93,534.99,693.191,529.195,688.093z
	 M547.515,499.129c-0.984-4.155,3.599-2.615,2.615-6.77c1.729,1.769,4.859,1.769,5.188-1.362c2.854,2.952,3.082,1.968,7.854,4.065
	c-0.706,1.083-1.361,2.197-1.313,4.066c-2.713,0.616-3.459-0.935-5.229-1.353c-1.032,0.279-1.262,1.353-2.574,1.353
	c0.379,4.771,3.509-0.09,3.877,2.713C556.292,509.784,549.851,502.17,547.515,499.129z M557.933,588.85
	c2.942-9.771,10.377-1.869,17.008,0c-1.491,2.564-1.541,6.59-6.541,5.467c0.05-1.313,1.591-1.074,2.615-1.353
	c-0.696-2.007-1.909-3.458-2.615-5.467C564.712,590.301,563.032,589.973,557.933,588.85z M582.793,679.962
	c-1.123,2.018-4.205,1.968-6.541,2.713c-1.631-5.557-5.884-8.409-13.081-8.171c-0.845,5.418,5,3.917,9.156,4.105
	c1.679,3.181-0.19,2.524,1.301,6.779c-3.072,0.418-4.9,2.147-9.154,1.353c0.05-2.337-0.984-3.5-2.615-4.066
	c1.681-1.352,3.271-1.213,5.328-0.795c-6.352-3.081-8.131-13.647,2.525-8.737c-0.428-3.182-1.361-5.835-3.926-6.779
	c1.539-2.475,6.818-1.073,9.154-2.704c-0.418,6.73,3.698,8.827,10.467,8.132C588.072,677.446,578.26,676.88,582.793,679.962z
	 M584.105,663.659c1.58,1.491,2.664,1.163,2.564-1.352c5.566,3.499,13.13-1.263,15.705,6.77
	C594.751,671.74,585.079,673.609,584.105,663.659z M602.375,492.359c-1.54,0.229-1.122,2.475-1.311,4.065
	c-5.747,1.023-5.368-4.394-9.166-5.427c-5.735,6.829-10.457-5.885-18.271,1.362c-1.301-3.787,7.436-3.837,2.624-6.829
	c21.681-3.927,41.163-2.475,54.86-5.417C622.048,487.499,615.686,489.367,602.375,492.359z M612.843,637.814
	c-2.902-3.688-4.345-0.368-7.853-2.703c2.146-3.042,7.057,0.228,3.925-5.468c2.715-0.795,8.551,1.681,9.105-1.361
	C622.882,633.004,614.383,635.29,612.843,637.814z M608.915,625.578c0.796-3.23,8.032,0.229,9.105-2.714
	c0.937-5.05-4.572-3.409-6.49-5.467c2.804-5.745,5.844-2.902,13.031-4.065c-0.934,4.154,1.363,4.95,1.313,8.181
	C621.063,623.242,613.727,632.396,608.915,625.578z M631.112,592.964c-6.918,0.935-6.688,9.345-14.393,9.483
	c-1.541-7.058-8.41-5.845-13.042-6.778c2.246-1.819,2.763-5.746,2.614-6.819c6.59-3.082,16.033-3.222,24.82-4.065
	c-1.173,2.385-4.582,2.475-6.551,4.065C625.785,591.235,626.998,593.61,631.112,592.964z M620.646,490.998
	c1.819-4.016,15.517-13.737,15.695-2.704C629.522,487.538,624.522,488.661,620.646,490.998z M654.611,501.842
	c-1.908-10.467,5.846-3.648,3.926-10.845c6.591,0,8.738-4.483,17.009-2.704c0.138-0.049,0.277-0.139,0.377-0.139
	c-1.918,1.163-6.451,4.245-2.992,5.556c-3.687,0.05-12.664,6.68-6.54,8.131C664.332,506.236,659.282,500.58,654.611,501.842z
	 M661.152,572.537c1.45-5.229-4.623-4.811-1.303-8.131c7.853,2.019,24.672-8.639,23.499,1.362
	C674.562,569.595,669.8,569.406,661.152,572.537z M679.423,583.422c3.409-1.024,6.073-1.491,9.164,1.362
	c-2.804,2.991-4.065,7.563-7.854,9.532c-4.77,0-4.999-4.771-7.803-6.819c1.074-3.181,5.696,1.163,7.803,1.353
	C680.924,586.414,679.144,585.996,679.423,583.422z M680.733,625.578c2.059-3.082,2.755-2.574,6.541-1.361
	c-2.384,1.918,2.058,6.59-1.313,9.532c-1.908-1.163-2.802-3.449-2.613-6.819c-4.622,0.468-3.17,3.738-7.803,1.353
	c-0.984-3.688,2.574-2.704,2.574-5.418c-1.641-3.826-2.663,4.255-6.502,2.714c2.387-7.484-5.467-4.304-5.228-9.532
	c6.451-0.1,12.852-4.205,15.655,2.753c3.271,0.239,4.106-2.098,5.229-4.115C693.021,621.234,678.627,618.332,680.733,625.578z
	 M684.661,599.734c0.188-2.427-1.59-2.844-1.313-5.418c4.026,1.024,2.524-3.737,6.541-2.714c-0.369,2.197,1.262,2.336,1.313,4.066
	c1.769-0.886,2.435-2.894,2.613-5.418c4.065-0.14,6.263,1.63,9.165,2.713c0.14-4.114-6.83-3.836-2.625-8.18
	c3.043,2.285,4.633,6.072,6.541,9.532C699.372,595.997,691.719,597.587,684.661,599.734z M714.699,467.867
	c-2.285-1.163-3.776-4.294-6.541-1.352c-0.506,8.976,5.568,3.549,7.854,8.181c-3.132,3.032-6.958,5.417-9.115,9.483
	c-3.498-2.287-11.629,0.328-13.081-4.066c-2.059,0.467,1.124,2.385-1.313,2.713c2.576,2.287,8.181,1.491,11.78,2.704
	c-2.386,4.533-5.09,5.656-10.468,4.115c-0.228-2.942,4.632-0.656,6.54-1.352c-1.778-6.073-10.466,2.992-10.466-5.467
	c-11.73-0.377-21.729,5.04-31.353,2.704c4.533-6.581,8.222-14.065,17.009-16.302c1.074,1.59,1.689,3.648,1.313,6.819
	c2.146,0.428,3.499,3.131,7.803,1.352c-1.541-5.467,2.336-3.917,7.842-6.819c-0.367,3.131,0.34,5.139,2.625,5.467
	c5.04-1.541,5.139-4.155,9.155-4.116c-2.893-10.974-13.032,1.73-17.009-8.13c5.139,2.713,11.352,0.616,13.081-4.056
	c2.147,1.819,0.984,7.097,5.238,6.77c-0.099-4.623,4.712-3.32,10.418-4.066c-0.517-2.614-5.05-1.074-3.926-5.467
	c4.254-1.68,1.033,4.443,5.229,2.763C717.971,463.99,715.457,465.024,714.699,467.867z M716.012,340.075
	c-0.277-8.27-0.039-5.139-2.613-13.599c7.704,1.591,4.812,1.958,13.082,2.753c-0.847,6.074,0,6.034-2.615,10.845H716.012z
	 M761.757,437.966c-0.695-1.074-1.352-2.197-1.311-4.065c9.682-2.147,10.654,4.533,20.894,0c-1.262,6.024-0.188,3.548,1.303,8.131
	c-4.065,0.467-10.179,10.606-11.77,1.352c2.097-0.09,5,0.656,5.229-1.352c-4.673-1.452-6.492-5.885-11.73-6.779
	c-2.893,0.756-1.729,7.853-5.228,4.065C759.193,438.016,760.733,438.294,761.757,437.966z M739.562,465.163
	c-3.918,0.885,1.222,2.893,0,5.417c-2.197,2.296-7.703,1.074-11.771,1.352c-0.428-5.507-4.959-8.27,0-12.187
	c2.287,1.213,3.828,3.271,6.54,4.056c1.771-0.418,1.074-3.41,1.313-5.467c1.581,0.616,2.654,1.779,2.615,4.115
	c2.794-3.081,4.433,1.124,9.105,0c-1.401-8.359-8.359-2.853-13.033-8.17c0.28-1.968,3.877-0.467,3.928-2.714
	c1.212,0.984,1.957,2.475,2.564,4.065c3.55,0.05,3.55-6.779,0.049-6.779c8.271-8.828,10.051,10.278,19.574,4.065
	c-4.295,3.836-0.937,4.632,2.613,6.829C755.734,466.604,746.708,471.097,739.562,465.163z M774.799,533.153
	c-2.017-0.755-0.05-1.451,1.303-1.361c-1.819-1.729-0.557-6.68-3.928-6.818c-2.613,2.893-4.015,6.352-11.728,6.818
	c4.531-8.499,13.508-7.336,20.894-6.818C779.839,528.383,778.486,531.981,774.799,533.153z"/>
</svg>
