<?xml version="1.0" encoding="utf-8"?>
<!-- Generator: Adobe Illustrator 16.0.0, SVG Export Plug-In . SVG Version: 6.00 Build 0)  -->
<!DOCTYPE svg PUBLIC "-//W3C//DTD SVG 1.1//EN" "http://www.w3.org/Graphics/SVG/1.1/DTD/svg11.dtd">
<svg version="1.1" id="图层_1" xmlns="http://www.w3.org/2000/svg" xmlns:xlink="http://www.w3.org/1999/xlink" x="0px" y="0px"
	 width="1024px" height="1024px" viewBox="0 0 1024 1024" enable-background="new 0 0 1024 1024" xml:space="preserve">
<path class="c1-fill" fill-rule="evenodd" clip-rule="evenodd" fill="#F04B36" d="M424.043,187.84c-0.1,0.04-0.189,0.04-0.279,0.04
	c0.09,0.099,0.179,0.139,0.279,0.238C424.092,188.019,424.043,187.929,424.043,187.84z M693.722,99.093
	c0.218,0.159,0.457,0.278,0.736,0.378C694.229,99.322,693.98,99.192,693.722,99.093z M390.067,181.011
	c-0.069-0.208-0.179-0.388-0.308-0.526C389.858,180.673,389.958,180.842,390.067,181.011z M199.334,344.19
	c0.318-0.517,0.557-1.034,0.695-1.501C199.751,342.828,199.522,343.295,199.334,344.19z"/>
<g>
	<g>
		<g>
			<defs>
				<polygon id="SVGID_1_" points="98.52,13.613 957.232,13.613 957.232,1050.425 98.52,1050.425 98.52,13.613 				"/>
			</defs>
			<clipPath id="SVGID_2_">
				<use xlink:href="#SVGID_1_"  overflow="visible"/>
			</clipPath>
		</g>
	</g>
	<path class="c1-fill" fill-rule="evenodd" clip-rule="evenodd" fill="#F04B36" d="M440.29,933.989h109.043c0,0-48.469-143.864-45.435-215.05
		c0,0,178.721-136.321,143.882-246.873c0,0-48.486,146.916-146.916,175.685c0,0,1.792-127.217,20.392-211.474
		c23.196-105.085,25.024-141.406,25.024-141.406s-63.59,89.36-74.186,157.512c-10.595,68.151-31.396-135.025-31.804-130.251
		c-1.704,19.504-7.578,140.856,10.596,175.686c0,0-7.561,78.747-3.017,133.269c0,0-98.447-94.933-113.586-139.329
		c0,0,39.382,124.173,104.499,175.678C438.782,667.436,437.256,896.124,440.29,933.989z"/>
	<path class="c2-fill" fill="#294E58" d="M670.87,540.981c0,0-24.989,67.016,148.798,84.054C819.668,625.035,754.925,508.042,670.87,540.981z"/>
	<path class="c2-fill" fill="#294E58" d="M669.628,484.188c0,0,36.454,72.696,128.459,9.087c0,0,35.496-27.829,40.039-55.657
		c0,0-23.107,19.31-93.478,11.358C674.277,441.025,678.608,472.829,669.628,484.188z"/>
	<path class="c2-fill" fill="#294E58" d="M577.729,283.141c0,0,48.842,30.668,112.45-21.582c63.608-52.25,48.843-51.114,48.843-51.114
		S573.186,196.815,577.729,283.141z"/>
	<path class="c2-fill" fill="#294E58" d="M551.605,250.875c0,0,39.577-41.565,26.035-91.543c-13.541-49.979-6.726-81.783-6.726-81.783
		S475.804,161.267,551.605,250.875z"/>
	<path class="c2-fill" fill="#294E58" d="M515.258,271.782c0,0,3.585-82.731-69.288-107.569c-45.15-15.388-44.299-25.326-44.299-25.326
		S415.302,267.239,515.258,271.782z"/>
	<path class="c2-fill" fill="#294E58" d="M349.421,400.134c0,0,2.556-34.644-15.139-108.048c-15.849-65.765-9.85-64.603-9.85-64.603
		S256.583,343.714,349.421,400.134z"/>
	<path class="c2-fill" fill="#294E58" d="M316.481,453.52c0,0-97.684,14.766-132.896-145.391c0,0,69.288,31.982,102.228,76.191
		C318.753,428.531,316.481,453.52,316.481,453.52z"/>
	<path class="c2-fill" fill="#294E58" d="M316.517,519.364c0,0-7.986-37.448-96.583-20.41c-88.597,17.038-73.831,20.41-73.831,20.41
		s142.054,63.893,170.415,12.654"/>
	<path class="c2-fill" fill="#294E58" d="M659.068,296.487c0,0-96.389,72.412-30.51,168.959c0,0,46.004-45.434,39.472-88.881"/>
</g>
</svg>
