<?xml version="1.0" encoding="utf-8"?>
<!-- Generator: Adobe Illustrator 16.0.0, SVG Export Plug-In . SVG Version: 6.00 Build 0)  -->
<!DOCTYPE svg PUBLIC "-//W3C//DTD SVG 1.1//EN" "http://www.w3.org/Graphics/SVG/1.1/DTD/svg11.dtd">
<svg version="1.1" id="图形" xmlns="http://www.w3.org/2000/svg" xmlns:xlink="http://www.w3.org/1999/xlink" x="0px" y="0px"
	 width="1024px" height="1024px" viewBox="0 0 1024 1024" enable-background="new 0 0 1024 1024" xml:space="preserve">
<g>
	<path class="c2-fill" fill="#294E58" d="M696.545,257.968H585.312c32.439-9.806,61.282-12.875,90.124-46.621
		c23.687-27.56,21.625-61.532-1.547-73.903c-5.154-3.093-11.592-4.879-19.312-5.156c-40.17-1.534-72.357,34.778-72.357,34.778
		c-45.062,34.752-37.078,90.902-37.078,90.902h-70.811c0,0,7.984-56.15-36.827-90.902c0,0-32.438-36.312-72.608-34.778
		c-40.17,1.811-49.953,45.062-20.858,79.059c29.093,33.746,57.936,36.815,90.123,46.621H323.179c0,0-65.92-48.431-41.969-115.872
		c24.204-67.744,98.107-87.056,152.95-40.435c54.843,46.872,75.702,95,75.702,95s20.859-48.129,75.449-95
		c54.845-46.621,128.749-27.309,152.95,40.435C762.466,209.537,696.545,257.968,696.545,257.968z"/>
	<path class="c1-fill" fill="#06728D" d="M151.15,254.612h27.46v679.46h-27.46c-46.96,0-85.04-38.07-85.04-85.039V339.652
		C66.11,292.683,104.19,254.612,151.15,254.612z"/>
	<rect class="c3-fill" x="212.765" y="254.612" fill="#E77528" width="598.47" height="679.46"/>
	<path class="c4-fill" fill="#06728D" d="M955.57,339.652v509.381c0,46.969-38.07,85.039-85.04,85.039h-27.46v-679.46h27.46
		C917.5,254.612,955.57,292.683,955.57,339.652z"/>
</g>
</svg>
