<?xml version="1.0" encoding="utf-8"?>
<!-- Generator: Adobe Illustrator 16.0.0, SVG Export Plug-In . SVG Version: 6.00 Build 0)  -->
<!DOCTYPE svg PUBLIC "-//W3C//DTD SVG 1.1//EN" "http://www.w3.org/Graphics/SVG/1.1/DTD/svg11.dtd">
<svg version="1.1" id="图形" xmlns="http://www.w3.org/2000/svg" xmlns:xlink="http://www.w3.org/1999/xlink" x="0px" y="0px"
	 width="1024px" height="1024px" viewBox="0 0 1024 1024" enable-background="new 0 0 1024 1024" xml:space="preserve">
<g>
	<path class="c1-fill" fill="#F04B36" d="M534.817,911.472c0,13.827-11.212,25.042-25.05,25.042l0,0c-13.818,0-25.031-11.215-25.031-25.042V561.113
		c0-13.828,11.213-25.043,25.031-25.043l0,0c13.838,0,25.05,11.215,25.05,25.043V911.472z"/>
	<path class="c2-fill" fill="#0DB89A" d="M509.7,73.785c-147.874,0-267.831,119.959-267.831,268.003c0,139.393,106.707,254.046,242.917,266.589
		c8.127,0.888,16.426,1.242,24.914,1.242c8.471,0,16.787-0.354,25.086-1.242c136.21-12.543,242.917-127.196,242.917-266.589
		C777.703,193.744,657.746,73.785,509.7,73.785z M509.7,526.581c-102.122,0-184.796-82.674-184.796-184.793
		c0-102.108,82.674-184.965,184.796-184.965c102.117,0,184.963,82.857,184.963,184.965
		C694.663,443.907,611.817,526.581,509.7,526.581z"/>
	<path class="c3-fill" fill="#F7A93B" d="M592.203,341.788c0,45.409-36.922,82.331-82.503,82.331c-45.409,0-82.331-36.921-82.331-82.331
		c0-45.581,36.922-82.502,82.331-82.502C555.281,259.286,592.203,296.207,592.203,341.788z"/>
</g>
</svg>
