<?xml version="1.0" encoding="utf-8"?>
<!-- Generator: Adobe Illustrator 16.0.0, SVG Export Plug-In . SVG Version: 6.00 Build 0)  -->
<!DOCTYPE svg PUBLIC "-//W3C//DTD SVG 1.1//EN" "http://www.w3.org/Graphics/SVG/1.1/DTD/svg11.dtd">
<svg version="1.1" id="图形" xmlns="http://www.w3.org/2000/svg" xmlns:xlink="http://www.w3.org/1999/xlink" x="0px" y="0px"
	 width="1024px" height="1024px" viewBox="0 0 1024 1024" enable-background="new 0 0 1024 1024" xml:space="preserve">
<path class="c1-fill" fill="#F04B36" d="M438.576,328.3v178.278H195.125c-17.279,0-31.28-13.549-31.28-30.265V358.565
	c0-16.715,14.001-30.265,31.28-30.265H438.576z"/>
<path class="c1-fill" fill="#F04B36" d="M861.155,358.565v117.748c0,16.716-14.002,30.265-31.279,30.265H585.32V328.3h244.556
	C847.153,328.3,861.155,341.85,861.155,358.565z"/>
<path class="c2-fill" fill="#F7A93B" d="M217.908,524.132h220.668V850.5H249.188c-17.278,0-31.28-14.002-31.28-31.279V524.132z"/>
<path class="c2-fill" fill="#F7A93B" d="M805.988,524.132v295.089c0,17.277-14.002,31.279-31.279,31.279H585.32V524.132H805.988z"/>
<path class="c3-fill" fill="#4DA0D8" d="M564.357,342.931v149.602H460.643V340.978c12.07,11.254,31.302,18.536,52.96,18.536
	C533.981,359.514,552.221,353.07,564.357,342.931z"/>
<rect class="c3-fill" x="460.643" y="506.578" fill="#4DA0D8" width="103.714" height="339.509"/>
<line fill="none" x1="460.643" y1="506.578" x2="460.643" y2="492.532"/>
<path class="c4-fill" fill="#294E58" d="M667.795,297.727c-16.55,18.757-72.269,22.619-89.37,23.17c-17.102,0.551-33.376,11.033-39.444,15.447
	c-5.937,4.314-16.881,7.79-25.102,7.734c-8.407,0.056-23.578-3.42-29.514-7.734c-6.068-4.414-16.55-14.896-33.652-15.447
	c-17.102-0.552-72.82-4.414-89.371-23.17c-16.55-18.757-48.547-122.471,29.791-130.194c70.912-6.984,115.597,93.585,123.441,112.728
	c7.834-19.143,52.52-119.712,123.431-112.728C716.342,175.256,684.346,278.97,667.795,297.727z"/>
</svg>
