<?xml version="1.0" encoding="utf-8"?>
<!-- Generator: Adobe Illustrator 16.0.0, SVG Export Plug-In . SVG Version: 6.00 Build 0)  -->
<!DOCTYPE svg PUBLIC "-//W3C//DTD SVG 1.1//EN" "http://www.w3.org/Graphics/SVG/1.1/DTD/svg11.dtd">
<svg version="1.1" id="图形" xmlns="http://www.w3.org/2000/svg" xmlns:xlink="http://www.w3.org/1999/xlink" x="0px" y="0px"
	 width="1024px" height="1024px" viewBox="0 0 1024 1024" enable-background="new 0 0 1024 1024" xml:space="preserve">
<g>
	<path class="c1-fill" fill="#F04B36" d="M809.748,736.582c0,54.375,0,110.928,0,110.928s-9.063,49.842-67.968,70.322
		c0,0-141.921,26.285-264.265,26.285h-3.08c-144.186,0-264.264-26.285-264.264-26.285c-58.906-20.48-67.969-70.322-67.969-70.322
		s0-56.553,0-110.928s45.313-65.793,99.688-50.021c52.196,15.223,220.755,24.285,234.722,25.01
		c20.655-1.273,182.507-10.141,233.448-25.01C764.436,670.789,809.748,682.207,809.748,736.582z"/>
	<path class="c2-fill" fill="#4DA0D8" d="M189.002,651.18c0,0,288.496,86.092,573.965,0c0,0-134.434-243.202-102.715-286.992
		c31.719-43.791,72.519-6.037,84.589,12.089c0,0,15.117-63.508,92.13-80.058c0,0-206.933-226.544-312.656-215.978
		c-105.723,10.567-164.629,42.286-231.093,232.598L189.002,651.18z"/>
	<path class="c1-fill" fill="#F04B36" d="M986.502,423.023c0,65.473-53.083,118.555-118.556,118.555c-65.49,0-118.574-53.082-118.574-118.555
		c0-65.49,53.084-118.574,118.574-118.574C933.419,304.449,986.502,357.533,986.502,423.023z"/>
</g>
</svg>
