<?xml version="1.0" encoding="utf-8"?>
<!-- Generator: Adobe Illustrator 16.0.0, SVG Export Plug-In . SVG Version: 6.00 Build 0)  -->
<!DOCTYPE svg PUBLIC "-//W3C//DTD SVG 1.1//EN" "http://www.w3.org/Graphics/SVG/1.1/DTD/svg11.dtd">
<svg version="1.1" id="图形" xmlns="http://www.w3.org/2000/svg" xmlns:xlink="http://www.w3.org/1999/xlink" x="0px" y="0px"
	 width="1024px" height="1024px" viewBox="0 0 1024 1024" enable-background="new 0 0 1024 1024" xml:space="preserve">
<path class="c1-fill" fill="#06728D" d="M763.933,892.54c0,28.44-23.065,51.505-51.506,51.505H313.546c-28.441,0-51.506-23.064-51.506-51.505
	V132.569c0-28.44,23.065-51.506,51.506-51.506h398.881c28.44,0,51.506,23.065,51.506,51.506V892.54z"/>
<path class="c2-fill" fill="#ECECEC" d="M581.116,124.213c0,3.761-3.052,6.812-6.813,6.812H451.669c-3.762,0-6.813-3.051-6.813-6.812l0,0
	c0-3.762,3.051-6.814,6.813-6.814h122.634C578.064,117.399,581.116,120.451,581.116,124.213L581.116,124.213z"/>
<rect x="314.273" y="167.362" fill="#ECECEC" width="397.425" height="640.423"/>
<circle fill="#ECECEC" cx="512.986" cy="871.373" r="36.337"/>
</svg>
