<?xml version="1.0" encoding="utf-8"?>
<!-- Generator: Adobe Illustrator 16.0.0, SVG Export Plug-In . SVG Version: 6.00 Build 0)  -->
<!DOCTYPE svg PUBLIC "-//W3C//DTD SVG 1.1//EN" "http://www.w3.org/Graphics/SVG/1.1/DTD/svg11.dtd">
<svg version="1.1" id="图形" xmlns="http://www.w3.org/2000/svg" xmlns:xlink="http://www.w3.org/1999/xlink" x="0px" y="0px"
	 width="1024px" height="1024px" viewBox="0 0 1024 1024" enable-background="new 0 0 1024 1024" xml:space="preserve">
<g>
	<rect x="85.703" y="310.354" class="c1-fill" fill="#06728D" width="104.742" height="406.692"/>
	<polygon class="c2-fill" fill="#CFD0D1" points="239.747,310.354 239.747,717.047 590.98,938.879 590.98,76.192 	"/>
	<g>
		<path class="c3-fill" fill="#F04B36" d="M942.161,508.574c0,142.959-86.13,265.7-209.466,318.974c-3.123,2.22-6.986,3.556-11.156,3.556
			c-10.562,0-19.046-8.485-19.046-19.045c0-7.726,4.621-14.425,11.318-17.402c0.146,0,0.29-0.146,0.435-0.146
			c111.583-46.865,190.13-157.257,190.13-285.937c0-130.775-81.092-242.503-195.637-288.032c-0.289-0.145-0.74-0.289-1.029-0.451
			c-6.554-2.979-11.013-9.514-11.013-17.259c0-10.398,8.485-18.882,19.047-18.882c2.815,0,5.506,0.595,7.87,1.787
			C851.718,236.753,942.161,362.166,942.161,508.574z"/>
		<path class="c3-fill" fill="#F04B36" d="M822.852,507.979c0,98.188-55.496,183.289-136.877,225.551c-0.595,0.433-1.19,0.74-1.932,1.029
			c-2.383,1.335-5.217,2.094-8.179,2.094c-9.982,0-18.015-8.196-18.015-17.998c0-7.149,4.313-13.107,10.271-16.068
			c0.453-0.307,1.047-0.596,1.48-0.758c0-0.145,0.145-0.145,0.308-0.145c69.629-36.61,117.09-109.651,117.09-193.705
			c0-85.535-48.94-159.497-120.665-195.331c-0.451-0.163-0.739-0.452-1.19-0.596c-6.247-2.835-10.417-8.936-10.417-16.23
			c0-9.802,8.034-17.998,17.999-17.998c2.689,0,5.217,0.596,7.455,1.787l0.145-0.29
			C764.685,320.681,822.852,407.568,822.852,507.979z"/>
		<path class="c3-fill" fill="#F04B36" d="M689.694,508.574c0,45.528-18.162,86.888-47.75,117.09c-2.383,2.672-5.073,5.199-7.744,7.582l-0.146,0.145
			c-0.145,0-0.145,0-0.145,0v0.145c-2.383,1.191-5.072,1.787-7.889,1.787c-10.109,0-18.306-8.179-18.306-18.287
			c0-7.005,4.026-13.107,9.966-16.067v-0.162c22.909-23.938,37.044-56.523,37.044-92.231c0-35.998-14.279-68.728-37.478-92.684
			c-6.409-2.834-10.868-9.225-10.868-16.662c0-10.128,8.179-18.161,18.161-18.161c2.816,0,5.65,0.596,8.017,1.787
			c0.596,0.289,1.191,0.596,1.786,1.047c1.644,1.48,3.286,2.961,4.766,4.459c0.308,0.145,0.452,0.434,0.597,0.74
			C670.647,419.61,689.694,461.853,689.694,508.574z"/>
	</g>
	<path class="c1-fill" fill="#06728D" d="M634.055,633.391l-0.145,0.145v-0.145C633.91,633.391,633.91,633.391,634.055,633.391z"/>
	<path class="c1-fill" fill="#06728D" d="M634.344,383.901c-0.595-0.451-1.19-0.758-1.786-1.047l0.161-0.451
		C633.314,382.854,633.91,383.45,634.344,383.901z"/>
	<path fill="#06728D" d="M641.944,625.664c-1.643,3.267-4.314,5.939-7.744,7.582C636.871,630.863,639.562,628.336,641.944,625.664z"
		/>
</g>
</svg>
